G75*
%MOIN*%
%OFA0B0*%
%FSLAX25Y25*%
%IPPOS*%
%LPD*%
%AMOC8*
5,1,8,0,0,1.08239X$1,22.5*
%
%ADD10C,0.00000*%
%ADD11C,0.00300*%
%ADD12C,0.00400*%
%ADD13R,0.00984X0.00886*%
%ADD14C,0.00394*%
%ADD15C,0.00500*%
D10*
X0006400Y0008900D02*
X0006400Y0148900D01*
X0006402Y0149040D01*
X0006408Y0149180D01*
X0006418Y0149320D01*
X0006431Y0149460D01*
X0006449Y0149599D01*
X0006471Y0149738D01*
X0006496Y0149875D01*
X0006525Y0150013D01*
X0006558Y0150149D01*
X0006595Y0150284D01*
X0006636Y0150418D01*
X0006681Y0150551D01*
X0006729Y0150683D01*
X0006781Y0150813D01*
X0006836Y0150942D01*
X0006895Y0151069D01*
X0006958Y0151195D01*
X0007024Y0151319D01*
X0007093Y0151440D01*
X0007166Y0151560D01*
X0007243Y0151678D01*
X0007322Y0151793D01*
X0007405Y0151907D01*
X0007491Y0152017D01*
X0007580Y0152126D01*
X0007672Y0152232D01*
X0007767Y0152335D01*
X0007864Y0152436D01*
X0007965Y0152533D01*
X0008068Y0152628D01*
X0008174Y0152720D01*
X0008283Y0152809D01*
X0008393Y0152895D01*
X0008507Y0152978D01*
X0008622Y0153057D01*
X0008740Y0153134D01*
X0008860Y0153207D01*
X0008981Y0153276D01*
X0009105Y0153342D01*
X0009231Y0153405D01*
X0009358Y0153464D01*
X0009487Y0153519D01*
X0009617Y0153571D01*
X0009749Y0153619D01*
X0009882Y0153664D01*
X0010016Y0153705D01*
X0010151Y0153742D01*
X0010287Y0153775D01*
X0010425Y0153804D01*
X0010562Y0153829D01*
X0010701Y0153851D01*
X0010840Y0153869D01*
X0010980Y0153882D01*
X0011120Y0153892D01*
X0011260Y0153898D01*
X0011400Y0153900D01*
X0071400Y0153900D01*
X0071540Y0153898D01*
X0071680Y0153892D01*
X0071820Y0153882D01*
X0071960Y0153869D01*
X0072099Y0153851D01*
X0072238Y0153829D01*
X0072375Y0153804D01*
X0072513Y0153775D01*
X0072649Y0153742D01*
X0072784Y0153705D01*
X0072918Y0153664D01*
X0073051Y0153619D01*
X0073183Y0153571D01*
X0073313Y0153519D01*
X0073442Y0153464D01*
X0073569Y0153405D01*
X0073695Y0153342D01*
X0073819Y0153276D01*
X0073940Y0153207D01*
X0074060Y0153134D01*
X0074178Y0153057D01*
X0074293Y0152978D01*
X0074407Y0152895D01*
X0074517Y0152809D01*
X0074626Y0152720D01*
X0074732Y0152628D01*
X0074835Y0152533D01*
X0074936Y0152436D01*
X0075033Y0152335D01*
X0075128Y0152232D01*
X0075220Y0152126D01*
X0075309Y0152017D01*
X0075395Y0151907D01*
X0075478Y0151793D01*
X0075557Y0151678D01*
X0075634Y0151560D01*
X0075707Y0151440D01*
X0075776Y0151319D01*
X0075842Y0151195D01*
X0075905Y0151069D01*
X0075964Y0150942D01*
X0076019Y0150813D01*
X0076071Y0150683D01*
X0076119Y0150551D01*
X0076164Y0150418D01*
X0076205Y0150284D01*
X0076242Y0150149D01*
X0076275Y0150013D01*
X0076304Y0149875D01*
X0076329Y0149738D01*
X0076351Y0149599D01*
X0076369Y0149460D01*
X0076382Y0149320D01*
X0076392Y0149180D01*
X0076398Y0149040D01*
X0076400Y0148900D01*
X0076400Y0008900D01*
X0076398Y0008760D01*
X0076392Y0008620D01*
X0076382Y0008480D01*
X0076369Y0008340D01*
X0076351Y0008201D01*
X0076329Y0008062D01*
X0076304Y0007925D01*
X0076275Y0007787D01*
X0076242Y0007651D01*
X0076205Y0007516D01*
X0076164Y0007382D01*
X0076119Y0007249D01*
X0076071Y0007117D01*
X0076019Y0006987D01*
X0075964Y0006858D01*
X0075905Y0006731D01*
X0075842Y0006605D01*
X0075776Y0006481D01*
X0075707Y0006360D01*
X0075634Y0006240D01*
X0075557Y0006122D01*
X0075478Y0006007D01*
X0075395Y0005893D01*
X0075309Y0005783D01*
X0075220Y0005674D01*
X0075128Y0005568D01*
X0075033Y0005465D01*
X0074936Y0005364D01*
X0074835Y0005267D01*
X0074732Y0005172D01*
X0074626Y0005080D01*
X0074517Y0004991D01*
X0074407Y0004905D01*
X0074293Y0004822D01*
X0074178Y0004743D01*
X0074060Y0004666D01*
X0073940Y0004593D01*
X0073819Y0004524D01*
X0073695Y0004458D01*
X0073569Y0004395D01*
X0073442Y0004336D01*
X0073313Y0004281D01*
X0073183Y0004229D01*
X0073051Y0004181D01*
X0072918Y0004136D01*
X0072784Y0004095D01*
X0072649Y0004058D01*
X0072513Y0004025D01*
X0072375Y0003996D01*
X0072238Y0003971D01*
X0072099Y0003949D01*
X0071960Y0003931D01*
X0071820Y0003918D01*
X0071680Y0003908D01*
X0071540Y0003902D01*
X0071400Y0003900D01*
X0011400Y0003900D01*
X0011260Y0003902D01*
X0011120Y0003908D01*
X0010980Y0003918D01*
X0010840Y0003931D01*
X0010701Y0003949D01*
X0010562Y0003971D01*
X0010425Y0003996D01*
X0010287Y0004025D01*
X0010151Y0004058D01*
X0010016Y0004095D01*
X0009882Y0004136D01*
X0009749Y0004181D01*
X0009617Y0004229D01*
X0009487Y0004281D01*
X0009358Y0004336D01*
X0009231Y0004395D01*
X0009105Y0004458D01*
X0008981Y0004524D01*
X0008860Y0004593D01*
X0008740Y0004666D01*
X0008622Y0004743D01*
X0008507Y0004822D01*
X0008393Y0004905D01*
X0008283Y0004991D01*
X0008174Y0005080D01*
X0008068Y0005172D01*
X0007965Y0005267D01*
X0007864Y0005364D01*
X0007767Y0005465D01*
X0007672Y0005568D01*
X0007580Y0005674D01*
X0007491Y0005783D01*
X0007405Y0005893D01*
X0007322Y0006007D01*
X0007243Y0006122D01*
X0007166Y0006240D01*
X0007093Y0006360D01*
X0007024Y0006481D01*
X0006958Y0006605D01*
X0006895Y0006731D01*
X0006836Y0006858D01*
X0006781Y0006987D01*
X0006729Y0007117D01*
X0006681Y0007249D01*
X0006636Y0007382D01*
X0006595Y0007516D01*
X0006558Y0007651D01*
X0006525Y0007787D01*
X0006496Y0007925D01*
X0006471Y0008062D01*
X0006449Y0008201D01*
X0006431Y0008340D01*
X0006418Y0008480D01*
X0006408Y0008620D01*
X0006402Y0008760D01*
X0006400Y0008900D01*
D11*
X0015223Y0026550D02*
X0015223Y0028001D01*
X0015706Y0028485D01*
X0017641Y0028485D01*
X0018125Y0028001D01*
X0018125Y0026550D01*
X0015223Y0026550D01*
X0015706Y0029497D02*
X0016190Y0029497D01*
X0016674Y0029980D01*
X0016674Y0031431D01*
X0017641Y0031431D02*
X0015706Y0031431D01*
X0015223Y0030948D01*
X0015223Y0029980D01*
X0015706Y0029497D01*
X0017641Y0029497D02*
X0018125Y0029980D01*
X0018125Y0030948D01*
X0017641Y0031431D01*
X0018125Y0036550D02*
X0015223Y0036550D01*
X0015223Y0038001D01*
X0015706Y0038485D01*
X0017641Y0038485D01*
X0018125Y0038001D01*
X0018125Y0036550D01*
X0017641Y0039497D02*
X0017158Y0039497D01*
X0016674Y0039980D01*
X0016674Y0040948D01*
X0017158Y0041431D01*
X0017641Y0041431D01*
X0018125Y0040948D01*
X0018125Y0039980D01*
X0017641Y0039497D01*
X0016674Y0039980D02*
X0016190Y0039497D01*
X0015706Y0039497D01*
X0015223Y0039980D01*
X0015223Y0040948D01*
X0015706Y0041431D01*
X0016190Y0041431D01*
X0016674Y0040948D01*
X0015223Y0046550D02*
X0018125Y0046550D01*
X0018125Y0048001D01*
X0017641Y0048485D01*
X0015706Y0048485D01*
X0015223Y0048001D01*
X0015223Y0046550D01*
X0015223Y0049497D02*
X0015223Y0051431D01*
X0015706Y0051431D01*
X0017641Y0049497D01*
X0018125Y0049497D01*
X0018125Y0056550D02*
X0015223Y0056550D01*
X0015223Y0058001D01*
X0015706Y0058485D01*
X0017641Y0058485D01*
X0018125Y0058001D01*
X0018125Y0056550D01*
X0017641Y0059497D02*
X0016674Y0059497D01*
X0016674Y0060948D01*
X0017158Y0061431D01*
X0017641Y0061431D01*
X0018125Y0060948D01*
X0018125Y0059980D01*
X0017641Y0059497D01*
X0016674Y0059497D02*
X0015706Y0060464D01*
X0015223Y0061431D01*
X0015223Y0066550D02*
X0015223Y0068001D01*
X0015706Y0068485D01*
X0017641Y0068485D01*
X0018125Y0068001D01*
X0018125Y0066550D01*
X0015223Y0066550D01*
X0015223Y0069497D02*
X0016674Y0069497D01*
X0016190Y0070464D01*
X0016190Y0070948D01*
X0016674Y0071431D01*
X0017641Y0071431D01*
X0018125Y0070948D01*
X0018125Y0069980D01*
X0017641Y0069497D01*
X0015223Y0069497D02*
X0015223Y0071431D01*
X0015223Y0076550D02*
X0015223Y0078001D01*
X0015706Y0078485D01*
X0017641Y0078485D01*
X0018125Y0078001D01*
X0018125Y0076550D01*
X0015223Y0076550D01*
X0016674Y0079497D02*
X0016674Y0081431D01*
X0018125Y0080948D02*
X0015223Y0080948D01*
X0016674Y0079497D01*
X0015223Y0086550D02*
X0018125Y0086550D01*
X0018125Y0088001D01*
X0017641Y0088485D01*
X0015706Y0088485D01*
X0015223Y0088001D01*
X0015223Y0086550D01*
X0015706Y0089497D02*
X0015223Y0089980D01*
X0015223Y0090948D01*
X0015706Y0091431D01*
X0016190Y0091431D01*
X0016674Y0090948D01*
X0017158Y0091431D01*
X0017641Y0091431D01*
X0018125Y0090948D01*
X0018125Y0089980D01*
X0017641Y0089497D01*
X0016674Y0090464D02*
X0016674Y0090948D01*
X0015223Y0096550D02*
X0018125Y0096550D01*
X0018125Y0098001D01*
X0017641Y0098485D01*
X0015706Y0098485D01*
X0015223Y0098001D01*
X0015223Y0096550D01*
X0015706Y0099497D02*
X0015223Y0099980D01*
X0015223Y0100948D01*
X0015706Y0101431D01*
X0016190Y0101431D01*
X0018125Y0099497D01*
X0018125Y0101431D01*
X0017641Y0104050D02*
X0018125Y0104534D01*
X0018125Y0105501D01*
X0017641Y0105985D01*
X0017158Y0105985D01*
X0016674Y0105501D01*
X0016674Y0104534D01*
X0016190Y0104050D01*
X0015706Y0104050D01*
X0015223Y0104534D01*
X0015223Y0105501D01*
X0015706Y0105985D01*
X0015706Y0106997D02*
X0017641Y0106997D01*
X0018125Y0107480D01*
X0018125Y0108448D01*
X0017641Y0108931D01*
X0018125Y0109943D02*
X0018125Y0111878D01*
X0018125Y0109943D02*
X0015223Y0109943D01*
X0015706Y0108931D02*
X0015223Y0108448D01*
X0015223Y0107480D01*
X0015706Y0106997D01*
X0015706Y0114050D02*
X0016190Y0114050D01*
X0016674Y0114534D01*
X0016674Y0115501D01*
X0017158Y0115985D01*
X0017641Y0115985D01*
X0018125Y0115501D01*
X0018125Y0114534D01*
X0017641Y0114050D01*
X0018125Y0116997D02*
X0018125Y0118448D01*
X0017641Y0118931D01*
X0015706Y0118931D01*
X0015223Y0118448D01*
X0015223Y0116997D01*
X0018125Y0116997D01*
X0018125Y0119943D02*
X0016190Y0119943D01*
X0015223Y0120911D01*
X0016190Y0121878D01*
X0018125Y0121878D01*
X0016674Y0121878D02*
X0016674Y0119943D01*
X0017158Y0124050D02*
X0017158Y0125501D01*
X0016674Y0125985D01*
X0015706Y0125985D01*
X0015223Y0125501D01*
X0015223Y0124050D01*
X0018125Y0124050D01*
X0017158Y0125017D02*
X0018125Y0125985D01*
X0018125Y0126997D02*
X0015223Y0128931D01*
X0015223Y0129943D02*
X0015223Y0131394D01*
X0015706Y0131878D01*
X0017641Y0131878D01*
X0018125Y0131394D01*
X0018125Y0129943D01*
X0015223Y0129943D01*
X0015223Y0126997D02*
X0018125Y0128931D01*
X0015223Y0134050D02*
X0015223Y0135985D01*
X0015223Y0135017D02*
X0018125Y0135017D01*
X0018125Y0136997D02*
X0015223Y0138931D01*
X0015223Y0139943D02*
X0015223Y0141394D01*
X0015706Y0141878D01*
X0017641Y0141878D01*
X0018125Y0141394D01*
X0018125Y0139943D01*
X0015223Y0139943D01*
X0015055Y0142725D02*
X0013603Y0142725D01*
X0013603Y0145627D01*
X0015055Y0145627D01*
X0015538Y0145144D01*
X0015538Y0143209D01*
X0015055Y0142725D01*
X0012592Y0142725D02*
X0012592Y0145627D01*
X0010657Y0145627D02*
X0012592Y0142725D01*
X0010657Y0142725D02*
X0010657Y0145627D01*
X0009645Y0145144D02*
X0009162Y0145627D01*
X0008194Y0145627D01*
X0007710Y0145144D01*
X0007710Y0143209D01*
X0008194Y0142725D01*
X0009162Y0142725D01*
X0009645Y0143209D01*
X0009645Y0144176D01*
X0008678Y0144176D01*
X0015223Y0136997D02*
X0018125Y0138931D01*
X0019139Y0142725D02*
X0020107Y0142725D01*
X0019623Y0142725D02*
X0019623Y0145627D01*
X0019139Y0145627D02*
X0020107Y0145627D01*
X0021103Y0145144D02*
X0021103Y0143209D01*
X0021587Y0142725D01*
X0022555Y0142725D01*
X0023038Y0143209D01*
X0023038Y0145144D01*
X0022555Y0145627D01*
X0021587Y0145627D01*
X0021103Y0145144D01*
X0027710Y0145144D02*
X0027710Y0143209D01*
X0028194Y0142725D01*
X0029162Y0142725D01*
X0029645Y0143209D01*
X0029645Y0145144D02*
X0029162Y0145627D01*
X0028194Y0145627D01*
X0027710Y0145144D01*
X0030657Y0145627D02*
X0030657Y0142725D01*
X0032592Y0142725D01*
X0033603Y0142725D02*
X0033603Y0145627D01*
X0034087Y0144176D02*
X0035538Y0142725D01*
X0033603Y0143692D02*
X0035538Y0145627D01*
X0037710Y0145627D02*
X0037710Y0143692D01*
X0038678Y0142725D01*
X0039645Y0143692D01*
X0039645Y0145627D01*
X0040657Y0145144D02*
X0040657Y0143209D01*
X0041141Y0142725D01*
X0042108Y0142725D01*
X0042592Y0143209D01*
X0043603Y0143209D02*
X0043603Y0145144D01*
X0044087Y0145627D01*
X0045055Y0145627D01*
X0045538Y0145144D01*
X0045538Y0143209D02*
X0045055Y0142725D01*
X0044087Y0142725D01*
X0043603Y0143209D01*
X0042592Y0145144D02*
X0042108Y0145627D01*
X0041141Y0145627D01*
X0040657Y0145144D01*
X0044675Y0133827D02*
X0046126Y0133827D01*
X0046610Y0133344D01*
X0046610Y0132376D01*
X0046126Y0131892D01*
X0044675Y0131892D01*
X0044675Y0130925D02*
X0044675Y0133827D01*
X0047622Y0133344D02*
X0047622Y0131409D01*
X0048105Y0130925D01*
X0049073Y0130925D01*
X0049556Y0131409D01*
X0049556Y0133344D01*
X0049073Y0133827D01*
X0048105Y0133827D01*
X0047622Y0133344D01*
X0050568Y0133827D02*
X0050568Y0130925D01*
X0051536Y0131892D01*
X0052503Y0130925D01*
X0052503Y0133827D01*
X0053515Y0133827D02*
X0053515Y0130925D01*
X0055450Y0130925D01*
X0054482Y0132376D02*
X0053515Y0132376D01*
X0053515Y0133827D02*
X0055450Y0133827D01*
X0056461Y0133827D02*
X0056461Y0130925D01*
X0056461Y0131892D02*
X0057912Y0131892D01*
X0058396Y0132376D01*
X0058396Y0133344D01*
X0057912Y0133827D01*
X0056461Y0133827D01*
X0057429Y0131892D02*
X0058396Y0130925D01*
X0056008Y0124190D02*
X0055040Y0123223D01*
X0054029Y0123707D02*
X0054029Y0121772D01*
X0053545Y0121288D01*
X0052094Y0121288D01*
X0052094Y0124190D01*
X0053545Y0124190D01*
X0054029Y0123707D01*
X0056008Y0124190D02*
X0056008Y0121288D01*
X0056975Y0121288D02*
X0055040Y0121288D01*
X0055524Y0116690D02*
X0055040Y0116207D01*
X0055524Y0116690D02*
X0056492Y0116690D01*
X0056975Y0116207D01*
X0056975Y0115723D01*
X0055040Y0113788D01*
X0056975Y0113788D01*
X0054029Y0114272D02*
X0054029Y0116207D01*
X0053545Y0116690D01*
X0052094Y0116690D01*
X0052094Y0113788D01*
X0053545Y0113788D01*
X0054029Y0114272D01*
X0053545Y0109190D02*
X0052094Y0109190D01*
X0052094Y0106288D01*
X0053545Y0106288D01*
X0054029Y0106772D01*
X0054029Y0108707D01*
X0053545Y0109190D01*
X0055040Y0108707D02*
X0055524Y0109190D01*
X0056492Y0109190D01*
X0056975Y0108707D01*
X0056975Y0108223D01*
X0056492Y0107739D01*
X0056975Y0107255D01*
X0056975Y0106772D01*
X0056492Y0106288D01*
X0055524Y0106288D01*
X0055040Y0106772D01*
X0056008Y0107739D02*
X0056492Y0107739D01*
X0051082Y0106288D02*
X0049147Y0106288D01*
X0049147Y0109190D01*
X0051082Y0109190D01*
X0050115Y0107739D02*
X0049147Y0107739D01*
X0048136Y0106288D02*
X0046201Y0106288D01*
X0046201Y0109190D01*
X0046201Y0113788D02*
X0048136Y0113788D01*
X0049147Y0113788D02*
X0049147Y0116690D01*
X0051082Y0116690D01*
X0050115Y0115239D02*
X0049147Y0115239D01*
X0049147Y0113788D02*
X0051082Y0113788D01*
X0051082Y0121288D02*
X0049147Y0121288D01*
X0049147Y0124190D01*
X0051082Y0124190D01*
X0050115Y0122739D02*
X0049147Y0122739D01*
X0048136Y0121288D02*
X0046201Y0121288D01*
X0046201Y0124190D01*
X0046201Y0116690D02*
X0046201Y0113788D01*
X0047710Y0142725D02*
X0047710Y0145627D01*
X0049162Y0145627D01*
X0049645Y0145144D01*
X0049645Y0144176D01*
X0049162Y0143692D01*
X0047710Y0143692D01*
X0048678Y0143692D02*
X0049645Y0142725D01*
X0050657Y0142725D02*
X0052592Y0145627D01*
X0053603Y0145627D02*
X0055055Y0145627D01*
X0055538Y0145144D01*
X0055538Y0143209D01*
X0055055Y0142725D01*
X0053603Y0142725D01*
X0053603Y0145627D01*
X0050657Y0145627D02*
X0052592Y0142725D01*
X0057710Y0145627D02*
X0059645Y0145627D01*
X0060657Y0145627D02*
X0062592Y0142725D01*
X0063603Y0142725D02*
X0065055Y0142725D01*
X0065538Y0143209D01*
X0065538Y0145144D01*
X0065055Y0145627D01*
X0063603Y0145627D01*
X0063603Y0142725D01*
X0064598Y0141878D02*
X0067500Y0141878D01*
X0066533Y0140911D01*
X0067500Y0139943D01*
X0064598Y0139943D01*
X0065565Y0138931D02*
X0064598Y0137964D01*
X0065565Y0136997D01*
X0067500Y0136997D01*
X0067500Y0135985D02*
X0066533Y0135017D01*
X0066533Y0135501D02*
X0066533Y0134050D01*
X0067500Y0134050D02*
X0064598Y0134050D01*
X0064598Y0135501D01*
X0065081Y0135985D01*
X0066049Y0135985D01*
X0066533Y0135501D01*
X0066049Y0136997D02*
X0066049Y0138931D01*
X0065565Y0138931D02*
X0067500Y0138931D01*
X0067710Y0142725D02*
X0067710Y0145627D01*
X0069162Y0145627D01*
X0069645Y0145144D01*
X0069645Y0144176D01*
X0069162Y0143692D01*
X0067710Y0143692D01*
X0068678Y0143692D02*
X0069645Y0142725D01*
X0070657Y0143209D02*
X0071141Y0142725D01*
X0072108Y0142725D01*
X0072592Y0143209D01*
X0072592Y0143692D01*
X0072108Y0144176D01*
X0071141Y0144176D01*
X0070657Y0144660D01*
X0070657Y0145144D01*
X0071141Y0145627D01*
X0072108Y0145627D01*
X0072592Y0145144D01*
X0073603Y0145627D02*
X0075538Y0145627D01*
X0074571Y0145627D02*
X0074571Y0142725D01*
X0067016Y0131878D02*
X0067500Y0131394D01*
X0067500Y0129943D01*
X0064598Y0129943D01*
X0064598Y0131394D01*
X0065081Y0131878D01*
X0067016Y0131878D01*
X0067500Y0128931D02*
X0064598Y0128931D01*
X0064598Y0126997D02*
X0067500Y0128931D01*
X0067500Y0126997D02*
X0064598Y0126997D01*
X0065081Y0125985D02*
X0064598Y0125501D01*
X0064598Y0124534D01*
X0065081Y0124050D01*
X0067016Y0124050D01*
X0067500Y0124534D01*
X0067500Y0125501D01*
X0067016Y0125985D01*
X0066049Y0125985D01*
X0066049Y0125017D01*
X0064598Y0121878D02*
X0064598Y0119943D01*
X0064598Y0120911D02*
X0067500Y0120911D01*
X0067016Y0118931D02*
X0067500Y0118448D01*
X0067500Y0117480D01*
X0067016Y0116997D01*
X0066049Y0117480D02*
X0066049Y0118448D01*
X0066533Y0118931D01*
X0067016Y0118931D01*
X0066049Y0117480D02*
X0065565Y0116997D01*
X0065081Y0116997D01*
X0064598Y0117480D01*
X0064598Y0118448D01*
X0065081Y0118931D01*
X0065081Y0115985D02*
X0066049Y0115985D01*
X0066533Y0115501D01*
X0066533Y0114050D01*
X0067500Y0114050D02*
X0064598Y0114050D01*
X0064598Y0115501D01*
X0065081Y0115985D01*
X0066533Y0115017D02*
X0067500Y0115985D01*
X0067016Y0111878D02*
X0067500Y0111394D01*
X0067500Y0110427D01*
X0067016Y0109943D01*
X0065081Y0109943D01*
X0064598Y0110427D01*
X0064598Y0111394D01*
X0065081Y0111878D01*
X0065081Y0108931D02*
X0064598Y0108448D01*
X0064598Y0107480D01*
X0065081Y0106997D01*
X0067016Y0106997D01*
X0067500Y0107480D01*
X0067500Y0108448D01*
X0067016Y0108931D01*
X0066533Y0105985D02*
X0064598Y0105985D01*
X0066533Y0105985D02*
X0067500Y0105017D01*
X0066533Y0104050D01*
X0064598Y0104050D01*
X0065081Y0101431D02*
X0065565Y0101431D01*
X0066049Y0100948D01*
X0066533Y0101431D01*
X0067016Y0101431D01*
X0067500Y0100948D01*
X0067500Y0099980D01*
X0067016Y0099497D01*
X0067500Y0098485D02*
X0065565Y0098485D01*
X0064598Y0097517D01*
X0065565Y0096550D01*
X0067500Y0096550D01*
X0066049Y0096550D02*
X0066049Y0098485D01*
X0065081Y0099497D02*
X0064598Y0099980D01*
X0064598Y0100948D01*
X0065081Y0101431D01*
X0066049Y0100948D02*
X0066049Y0100464D01*
X0065565Y0091431D02*
X0065081Y0091431D01*
X0064598Y0090948D01*
X0064598Y0089980D01*
X0065081Y0089497D01*
X0065565Y0088485D02*
X0064598Y0087517D01*
X0065565Y0086550D01*
X0067500Y0086550D01*
X0066049Y0086550D02*
X0066049Y0088485D01*
X0065565Y0088485D02*
X0067500Y0088485D01*
X0067500Y0089497D02*
X0065565Y0091431D01*
X0067500Y0091431D02*
X0067500Y0089497D01*
X0067500Y0081431D02*
X0067500Y0079497D01*
X0067500Y0080464D02*
X0064598Y0080464D01*
X0065565Y0079497D01*
X0065565Y0078485D02*
X0064598Y0077517D01*
X0065565Y0076550D01*
X0067500Y0076550D01*
X0067500Y0078485D02*
X0065565Y0078485D01*
X0066049Y0078485D02*
X0066049Y0076550D01*
X0065081Y0071431D02*
X0067016Y0071431D01*
X0067500Y0070948D01*
X0067500Y0069980D01*
X0067016Y0069497D01*
X0065081Y0071431D01*
X0064598Y0070948D01*
X0064598Y0069980D01*
X0065081Y0069497D01*
X0067016Y0069497D01*
X0067500Y0068485D02*
X0065565Y0068485D01*
X0064598Y0067517D01*
X0065565Y0066550D01*
X0067500Y0066550D01*
X0066049Y0066550D02*
X0066049Y0068485D01*
X0067500Y0061878D02*
X0066049Y0060427D01*
X0066533Y0059943D02*
X0064598Y0061878D01*
X0064598Y0059943D02*
X0067500Y0059943D01*
X0067016Y0058931D02*
X0067500Y0058448D01*
X0067500Y0057480D01*
X0067016Y0056997D01*
X0065081Y0056997D01*
X0064598Y0057480D01*
X0064598Y0058448D01*
X0065081Y0058931D01*
X0065081Y0055985D02*
X0064598Y0055501D01*
X0064598Y0054534D01*
X0065081Y0054050D01*
X0065565Y0054050D01*
X0066049Y0054534D01*
X0066049Y0055501D01*
X0066533Y0055985D01*
X0067016Y0055985D01*
X0067500Y0055501D01*
X0067500Y0054534D01*
X0067016Y0054050D01*
X0067016Y0051431D02*
X0065081Y0051431D01*
X0064598Y0050948D01*
X0064598Y0049980D01*
X0065081Y0049497D01*
X0067016Y0049497D01*
X0067500Y0049980D01*
X0067500Y0050948D01*
X0067016Y0051431D01*
X0067500Y0048485D02*
X0064598Y0048485D01*
X0065565Y0047517D01*
X0064598Y0046550D01*
X0067500Y0046550D01*
X0067500Y0040464D02*
X0067500Y0039497D01*
X0067500Y0039980D02*
X0064598Y0039980D01*
X0064598Y0039497D02*
X0064598Y0040464D01*
X0064598Y0038485D02*
X0067500Y0038485D01*
X0067500Y0036550D02*
X0064598Y0036550D01*
X0065565Y0037517D01*
X0064598Y0038485D01*
X0065081Y0031878D02*
X0067016Y0029943D01*
X0067500Y0030427D01*
X0067500Y0031394D01*
X0067016Y0031878D01*
X0065081Y0031878D01*
X0064598Y0031394D01*
X0064598Y0030427D01*
X0065081Y0029943D01*
X0067016Y0029943D01*
X0067500Y0028931D02*
X0067500Y0026997D01*
X0067500Y0027964D02*
X0064598Y0027964D01*
X0065565Y0026997D01*
X0065081Y0025985D02*
X0064598Y0025501D01*
X0064598Y0024050D01*
X0067500Y0024050D01*
X0067500Y0025501D01*
X0067016Y0025985D01*
X0065081Y0025985D01*
X0015706Y0114050D02*
X0015223Y0114534D01*
X0015223Y0115501D01*
X0015706Y0115985D01*
X0058678Y0142725D02*
X0058678Y0145627D01*
X0060657Y0142725D02*
X0062592Y0145627D01*
D12*
X0052187Y0137778D02*
X0050613Y0137778D01*
X0050613Y0135022D02*
X0052187Y0135022D01*
X0052187Y0127778D02*
X0050613Y0127778D01*
X0050613Y0125022D02*
X0052187Y0125022D01*
X0052187Y0120278D02*
X0050613Y0120278D01*
X0050613Y0117522D02*
X0052187Y0117522D01*
X0052187Y0112778D02*
X0050613Y0112778D01*
X0050613Y0110022D02*
X0052187Y0110022D01*
D13*
X0051892Y0110268D03*
X0051892Y0117768D03*
X0051892Y0125268D03*
X0051892Y0135268D03*
D14*
X0039550Y0134825D02*
X0033250Y0134825D01*
X0033250Y0137975D01*
X0039550Y0137975D01*
X0039550Y0134825D01*
X0039550Y0127975D02*
X0033250Y0127975D01*
X0033250Y0124825D01*
X0039550Y0124825D01*
X0039550Y0127975D01*
X0039550Y0120475D02*
X0033250Y0120475D01*
X0033250Y0117325D01*
X0039550Y0117325D01*
X0039550Y0120475D01*
X0039550Y0112975D02*
X0033250Y0112975D01*
X0033250Y0109825D01*
X0039550Y0109825D01*
X0039550Y0112975D01*
X0039550Y0104225D02*
X0033250Y0104225D01*
X0033250Y0101075D01*
X0039550Y0101075D01*
X0039550Y0104225D01*
D15*
X0022965Y0059018D02*
X0022965Y0003900D01*
X0062335Y0003900D01*
X0062335Y0059018D01*
X0022965Y0059018D01*
M02*
