G75*
%MOIN*%
%OFA0B0*%
%FSLAX25Y25*%
%IPPOS*%
%LPD*%
%AMOC8*
5,1,8,0,0,1.08239X$1,22.5*
%
%ADD10C,0.00000*%
%ADD11C,0.00394*%
%ADD12C,0.01378*%
%ADD13C,0.00600*%
%ADD14R,0.00600X0.00100*%
%ADD15R,0.01100X0.00100*%
%ADD16R,0.01400X0.00100*%
%ADD17R,0.01600X0.00100*%
%ADD18R,0.01900X0.00100*%
%ADD19R,0.02000X0.00100*%
%ADD20R,0.02300X0.00100*%
%ADD21R,0.02500X0.00100*%
%ADD22R,0.02600X0.00100*%
%ADD23R,0.02800X0.00100*%
%ADD24R,0.03000X0.00100*%
%ADD25R,0.03200X0.00100*%
%ADD26R,0.03300X0.00100*%
%ADD27R,0.03500X0.00100*%
%ADD28R,0.03600X0.00100*%
%ADD29R,0.02100X0.00100*%
%ADD30R,0.01500X0.00100*%
%ADD31R,0.01800X0.00100*%
%ADD32R,0.01000X0.00100*%
%ADD33R,0.00700X0.00100*%
%ADD34R,0.01700X0.00100*%
%ADD35R,0.00500X0.00100*%
%ADD36R,0.00400X0.00100*%
%ADD37R,0.00200X0.00100*%
%ADD38R,0.00900X0.00100*%
%ADD39R,0.00300X0.00100*%
%ADD40R,0.01200X0.00100*%
%ADD41R,0.00100X0.00100*%
%ADD42R,0.01300X0.00100*%
%ADD43R,0.04100X0.00100*%
%ADD44R,0.08700X0.00100*%
%ADD45R,0.00800X0.00100*%
%ADD46R,0.07700X0.00100*%
%ADD47R,0.07000X0.00100*%
%ADD48R,0.06500X0.00100*%
%ADD49R,0.05900X0.00100*%
%ADD50R,0.05300X0.00100*%
%ADD51R,0.04800X0.00100*%
%ADD52R,0.04600X0.00100*%
%ADD53R,0.02400X0.00100*%
%ADD54R,0.02700X0.00100*%
%ADD55R,0.02200X0.00100*%
%ADD56R,0.02900X0.00100*%
%ADD57R,0.03100X0.00100*%
%ADD58R,0.03800X0.00100*%
%ADD59R,0.04200X0.00100*%
%ADD60R,0.04500X0.00100*%
%ADD61R,0.03700X0.00100*%
%ADD62R,0.04300X0.00100*%
%ADD63R,0.03400X0.00100*%
%ADD64R,0.05100X0.00100*%
%ADD65R,0.05200X0.00100*%
%ADD66R,0.03900X0.00100*%
%ADD67R,0.04000X0.00100*%
%ADD68R,0.04900X0.00100*%
%ADD69R,0.04700X0.00100*%
%ADD70R,0.04400X0.00100*%
D10*
X0006400Y0008900D02*
X0006400Y0148900D01*
X0006402Y0149040D01*
X0006408Y0149180D01*
X0006418Y0149320D01*
X0006431Y0149460D01*
X0006449Y0149599D01*
X0006471Y0149738D01*
X0006496Y0149875D01*
X0006525Y0150013D01*
X0006558Y0150149D01*
X0006595Y0150284D01*
X0006636Y0150418D01*
X0006681Y0150551D01*
X0006729Y0150683D01*
X0006781Y0150813D01*
X0006836Y0150942D01*
X0006895Y0151069D01*
X0006958Y0151195D01*
X0007024Y0151319D01*
X0007093Y0151440D01*
X0007166Y0151560D01*
X0007243Y0151678D01*
X0007322Y0151793D01*
X0007405Y0151907D01*
X0007491Y0152017D01*
X0007580Y0152126D01*
X0007672Y0152232D01*
X0007767Y0152335D01*
X0007864Y0152436D01*
X0007965Y0152533D01*
X0008068Y0152628D01*
X0008174Y0152720D01*
X0008283Y0152809D01*
X0008393Y0152895D01*
X0008507Y0152978D01*
X0008622Y0153057D01*
X0008740Y0153134D01*
X0008860Y0153207D01*
X0008981Y0153276D01*
X0009105Y0153342D01*
X0009231Y0153405D01*
X0009358Y0153464D01*
X0009487Y0153519D01*
X0009617Y0153571D01*
X0009749Y0153619D01*
X0009882Y0153664D01*
X0010016Y0153705D01*
X0010151Y0153742D01*
X0010287Y0153775D01*
X0010425Y0153804D01*
X0010562Y0153829D01*
X0010701Y0153851D01*
X0010840Y0153869D01*
X0010980Y0153882D01*
X0011120Y0153892D01*
X0011260Y0153898D01*
X0011400Y0153900D01*
X0071400Y0153900D01*
X0071540Y0153898D01*
X0071680Y0153892D01*
X0071820Y0153882D01*
X0071960Y0153869D01*
X0072099Y0153851D01*
X0072238Y0153829D01*
X0072375Y0153804D01*
X0072513Y0153775D01*
X0072649Y0153742D01*
X0072784Y0153705D01*
X0072918Y0153664D01*
X0073051Y0153619D01*
X0073183Y0153571D01*
X0073313Y0153519D01*
X0073442Y0153464D01*
X0073569Y0153405D01*
X0073695Y0153342D01*
X0073819Y0153276D01*
X0073940Y0153207D01*
X0074060Y0153134D01*
X0074178Y0153057D01*
X0074293Y0152978D01*
X0074407Y0152895D01*
X0074517Y0152809D01*
X0074626Y0152720D01*
X0074732Y0152628D01*
X0074835Y0152533D01*
X0074936Y0152436D01*
X0075033Y0152335D01*
X0075128Y0152232D01*
X0075220Y0152126D01*
X0075309Y0152017D01*
X0075395Y0151907D01*
X0075478Y0151793D01*
X0075557Y0151678D01*
X0075634Y0151560D01*
X0075707Y0151440D01*
X0075776Y0151319D01*
X0075842Y0151195D01*
X0075905Y0151069D01*
X0075964Y0150942D01*
X0076019Y0150813D01*
X0076071Y0150683D01*
X0076119Y0150551D01*
X0076164Y0150418D01*
X0076205Y0150284D01*
X0076242Y0150149D01*
X0076275Y0150013D01*
X0076304Y0149875D01*
X0076329Y0149738D01*
X0076351Y0149599D01*
X0076369Y0149460D01*
X0076382Y0149320D01*
X0076392Y0149180D01*
X0076398Y0149040D01*
X0076400Y0148900D01*
X0076400Y0008900D01*
X0076398Y0008760D01*
X0076392Y0008620D01*
X0076382Y0008480D01*
X0076369Y0008340D01*
X0076351Y0008201D01*
X0076329Y0008062D01*
X0076304Y0007925D01*
X0076275Y0007787D01*
X0076242Y0007651D01*
X0076205Y0007516D01*
X0076164Y0007382D01*
X0076119Y0007249D01*
X0076071Y0007117D01*
X0076019Y0006987D01*
X0075964Y0006858D01*
X0075905Y0006731D01*
X0075842Y0006605D01*
X0075776Y0006481D01*
X0075707Y0006360D01*
X0075634Y0006240D01*
X0075557Y0006122D01*
X0075478Y0006007D01*
X0075395Y0005893D01*
X0075309Y0005783D01*
X0075220Y0005674D01*
X0075128Y0005568D01*
X0075033Y0005465D01*
X0074936Y0005364D01*
X0074835Y0005267D01*
X0074732Y0005172D01*
X0074626Y0005080D01*
X0074517Y0004991D01*
X0074407Y0004905D01*
X0074293Y0004822D01*
X0074178Y0004743D01*
X0074060Y0004666D01*
X0073940Y0004593D01*
X0073819Y0004524D01*
X0073695Y0004458D01*
X0073569Y0004395D01*
X0073442Y0004336D01*
X0073313Y0004281D01*
X0073183Y0004229D01*
X0073051Y0004181D01*
X0072918Y0004136D01*
X0072784Y0004095D01*
X0072649Y0004058D01*
X0072513Y0004025D01*
X0072375Y0003996D01*
X0072238Y0003971D01*
X0072099Y0003949D01*
X0071960Y0003931D01*
X0071820Y0003918D01*
X0071680Y0003908D01*
X0071540Y0003902D01*
X0071400Y0003900D01*
X0011400Y0003900D01*
X0011260Y0003902D01*
X0011120Y0003908D01*
X0010980Y0003918D01*
X0010840Y0003931D01*
X0010701Y0003949D01*
X0010562Y0003971D01*
X0010425Y0003996D01*
X0010287Y0004025D01*
X0010151Y0004058D01*
X0010016Y0004095D01*
X0009882Y0004136D01*
X0009749Y0004181D01*
X0009617Y0004229D01*
X0009487Y0004281D01*
X0009358Y0004336D01*
X0009231Y0004395D01*
X0009105Y0004458D01*
X0008981Y0004524D01*
X0008860Y0004593D01*
X0008740Y0004666D01*
X0008622Y0004743D01*
X0008507Y0004822D01*
X0008393Y0004905D01*
X0008283Y0004991D01*
X0008174Y0005080D01*
X0008068Y0005172D01*
X0007965Y0005267D01*
X0007864Y0005364D01*
X0007767Y0005465D01*
X0007672Y0005568D01*
X0007580Y0005674D01*
X0007491Y0005783D01*
X0007405Y0005893D01*
X0007322Y0006007D01*
X0007243Y0006122D01*
X0007166Y0006240D01*
X0007093Y0006360D01*
X0007024Y0006481D01*
X0006958Y0006605D01*
X0006895Y0006731D01*
X0006836Y0006858D01*
X0006781Y0006987D01*
X0006729Y0007117D01*
X0006681Y0007249D01*
X0006636Y0007382D01*
X0006595Y0007516D01*
X0006558Y0007651D01*
X0006525Y0007787D01*
X0006496Y0007925D01*
X0006471Y0008062D01*
X0006449Y0008201D01*
X0006431Y0008340D01*
X0006418Y0008480D01*
X0006408Y0008620D01*
X0006402Y0008760D01*
X0006400Y0008900D01*
D11*
X0034825Y0087000D02*
X0034825Y0093300D01*
X0037975Y0093300D01*
X0037975Y0087000D01*
X0034825Y0087000D01*
X0041351Y0104500D02*
X0041351Y0110800D01*
X0053949Y0110800D01*
X0053949Y0104500D01*
X0041351Y0104500D01*
X0040750Y0112325D02*
X0040750Y0115475D01*
X0047050Y0115475D01*
X0047050Y0112325D01*
X0040750Y0112325D01*
X0044825Y0093300D02*
X0047975Y0093300D01*
X0047975Y0087000D01*
X0044825Y0087000D01*
X0044825Y0093300D01*
X0041351Y0133250D02*
X0041351Y0139550D01*
X0053949Y0139550D01*
X0053949Y0133250D01*
X0041351Y0133250D01*
D12*
X0041400Y0078900D03*
D13*
X0044441Y0120709D02*
X0044923Y0120709D01*
X0044441Y0120709D02*
X0044441Y0127091D01*
X0044923Y0127091D01*
X0048093Y0127091D02*
X0048467Y0127091D01*
X0051833Y0127091D02*
X0052207Y0127091D01*
X0055377Y0127091D02*
X0055859Y0127091D01*
X0055859Y0120709D01*
X0055377Y0120709D01*
X0052207Y0120709D02*
X0048093Y0120709D01*
D14*
X0032550Y0022900D03*
X0034650Y0019400D03*
X0034950Y0019600D03*
X0033350Y0016300D03*
X0032650Y0016100D03*
X0036250Y0013300D03*
X0036250Y0013200D03*
X0036050Y0011000D03*
X0036050Y0010900D03*
X0031350Y0008300D03*
X0029950Y0010300D03*
X0029950Y0010400D03*
X0028950Y0006400D03*
X0028550Y0016000D03*
X0040050Y0021600D03*
X0042050Y0011100D03*
X0044450Y0008900D03*
X0045650Y0010500D03*
X0050050Y0011200D03*
X0050350Y0011700D03*
X0050450Y0014300D03*
X0052450Y0009800D03*
X0055450Y0014000D03*
X0055350Y0014200D03*
X0050950Y0019800D03*
X0049150Y0019600D03*
D15*
X0048600Y0019000D03*
X0047000Y0016300D03*
X0048500Y0013300D03*
X0048500Y0012500D03*
X0048500Y0012400D03*
X0048500Y0012300D03*
X0048500Y0012200D03*
X0048500Y0012100D03*
X0048500Y0012000D03*
X0048500Y0011800D03*
X0050100Y0014500D03*
X0051900Y0012400D03*
X0051900Y0012300D03*
X0052400Y0016700D03*
X0052400Y0016800D03*
X0052400Y0016900D03*
X0052400Y0017000D03*
X0056100Y0013200D03*
X0056200Y0013100D03*
X0057800Y0012700D03*
X0057800Y0013600D03*
X0057700Y0014100D03*
X0059100Y0014500D03*
X0057700Y0016300D03*
X0057700Y0016500D03*
X0059400Y0009800D03*
X0041200Y0012200D03*
X0041100Y0012400D03*
X0041100Y0012500D03*
X0041000Y0012600D03*
X0041000Y0012700D03*
X0040900Y0012800D03*
X0040900Y0012900D03*
X0040800Y0013000D03*
X0040800Y0013100D03*
X0040800Y0013200D03*
X0040700Y0013300D03*
X0040700Y0013400D03*
X0040700Y0013500D03*
X0040600Y0013600D03*
X0040600Y0013700D03*
X0040600Y0013800D03*
X0040500Y0013900D03*
X0040500Y0014000D03*
X0040500Y0014100D03*
X0040500Y0014200D03*
X0040400Y0014300D03*
X0040400Y0014400D03*
X0040400Y0014500D03*
X0040300Y0014700D03*
X0040300Y0014800D03*
X0040300Y0014900D03*
X0040200Y0015100D03*
X0040200Y0015200D03*
X0040100Y0015500D03*
X0040100Y0015600D03*
X0040100Y0015700D03*
X0040000Y0016000D03*
X0040000Y0016100D03*
X0038300Y0015400D03*
X0038300Y0015300D03*
X0038300Y0015200D03*
X0038300Y0015100D03*
X0038300Y0015000D03*
X0038300Y0014900D03*
X0038300Y0014800D03*
X0038400Y0014500D03*
X0038400Y0014400D03*
X0038400Y0014300D03*
X0038400Y0014200D03*
X0038400Y0014100D03*
X0038400Y0014000D03*
X0038400Y0013900D03*
X0038400Y0013600D03*
X0038300Y0013100D03*
X0038300Y0013000D03*
X0038200Y0012800D03*
X0036200Y0012700D03*
X0034400Y0012700D03*
X0034400Y0015100D03*
X0034400Y0015300D03*
X0034400Y0015500D03*
X0034400Y0015700D03*
X0034400Y0015900D03*
X0034400Y0016100D03*
X0034400Y0016300D03*
X0034400Y0017300D03*
X0034400Y0017500D03*
X0034400Y0017700D03*
X0034400Y0017900D03*
X0034400Y0019000D03*
X0034500Y0019100D03*
X0032300Y0022800D03*
X0038400Y0017900D03*
X0039600Y0021400D03*
X0033900Y0010700D03*
X0033900Y0010600D03*
X0033800Y0010500D03*
X0032300Y0011400D03*
X0030800Y0012000D03*
X0030700Y0011900D03*
X0030500Y0011700D03*
X0030400Y0011600D03*
X0030300Y0011500D03*
X0030200Y0011400D03*
X0030100Y0010700D03*
X0030900Y0008000D03*
X0029000Y0006500D03*
D16*
X0029050Y0006600D03*
X0030250Y0011000D03*
X0030250Y0011100D03*
X0033050Y0012700D03*
X0034150Y0011300D03*
X0034150Y0011200D03*
X0036050Y0010100D03*
X0036150Y0009800D03*
X0036150Y0009700D03*
X0036250Y0009500D03*
X0036250Y0009400D03*
X0036350Y0012600D03*
X0038050Y0012600D03*
X0038150Y0016600D03*
X0038150Y0016700D03*
X0038150Y0016900D03*
X0039450Y0019400D03*
X0039450Y0019500D03*
X0039450Y0019600D03*
X0039350Y0020000D03*
X0039350Y0020100D03*
X0039350Y0020200D03*
X0039350Y0020300D03*
X0039350Y0020400D03*
X0039350Y0020500D03*
X0039350Y0020600D03*
X0039250Y0020700D03*
X0039350Y0020800D03*
X0039350Y0021000D03*
X0039350Y0021100D03*
X0034250Y0019900D03*
X0032150Y0022700D03*
X0030050Y0020000D03*
X0030050Y0019900D03*
X0030050Y0019800D03*
X0030050Y0019600D03*
X0030050Y0019500D03*
X0030050Y0019400D03*
X0030050Y0019300D03*
X0030050Y0019200D03*
X0030050Y0019100D03*
X0030050Y0019000D03*
X0030050Y0018900D03*
X0030050Y0018700D03*
X0030150Y0018600D03*
X0030150Y0018500D03*
X0030150Y0018400D03*
X0030150Y0018300D03*
X0030150Y0018200D03*
X0030150Y0018100D03*
X0030250Y0017700D03*
X0027450Y0013200D03*
X0027350Y0013100D03*
X0027250Y0013000D03*
X0027150Y0012800D03*
X0027150Y0012700D03*
X0027050Y0012500D03*
X0027050Y0012400D03*
X0027050Y0012300D03*
X0027050Y0012200D03*
X0027050Y0012100D03*
X0027050Y0012000D03*
X0027150Y0011500D03*
X0048350Y0013700D03*
X0048650Y0013000D03*
X0048650Y0012900D03*
X0048350Y0016600D03*
X0048350Y0016800D03*
X0048350Y0016900D03*
X0048350Y0017000D03*
X0048350Y0017100D03*
X0048350Y0017200D03*
X0048350Y0017400D03*
X0048350Y0018500D03*
X0048450Y0018700D03*
X0051150Y0019700D03*
X0052650Y0020500D03*
X0052650Y0020600D03*
X0052650Y0020700D03*
X0052650Y0020800D03*
X0053450Y0021600D03*
X0057750Y0018300D03*
X0057750Y0018200D03*
X0057650Y0018100D03*
X0057650Y0018000D03*
X0057650Y0017900D03*
X0057650Y0017800D03*
X0057650Y0017700D03*
X0057650Y0017600D03*
X0057650Y0017400D03*
X0057550Y0014400D03*
X0059350Y0009900D03*
X0053950Y0012000D03*
X0053850Y0012200D03*
X0053750Y0012300D03*
X0053750Y0012400D03*
X0053650Y0012500D03*
X0053650Y0012600D03*
X0053550Y0012700D03*
X0052950Y0014200D03*
X0052050Y0012800D03*
D17*
X0052850Y0014000D03*
X0053050Y0014400D03*
X0054150Y0011700D03*
X0054250Y0011600D03*
X0054350Y0011500D03*
X0058050Y0018400D03*
X0056950Y0019800D03*
X0053250Y0021500D03*
X0052750Y0021000D03*
X0048350Y0018400D03*
X0048250Y0013900D03*
X0048750Y0012700D03*
X0059350Y0010000D03*
X0036850Y0011600D03*
X0033350Y0020600D03*
X0033250Y0020700D03*
X0033150Y0020800D03*
X0032950Y0021000D03*
X0032450Y0021500D03*
X0032350Y0021600D03*
X0032250Y0021700D03*
X0032150Y0021800D03*
X0032050Y0021900D03*
X0031950Y0022100D03*
X0031950Y0022300D03*
X0031950Y0022500D03*
X0030150Y0020100D03*
X0027550Y0010100D03*
X0027650Y0009800D03*
X0027750Y0009500D03*
X0027850Y0009300D03*
X0027850Y0009200D03*
X0027950Y0009000D03*
X0027950Y0008900D03*
X0028050Y0008800D03*
X0028050Y0008700D03*
X0028150Y0008500D03*
X0029050Y0006700D03*
D18*
X0029100Y0006800D03*
X0028500Y0008000D03*
X0032000Y0018900D03*
X0048100Y0014200D03*
X0048900Y0010600D03*
X0051500Y0009100D03*
X0052800Y0013700D03*
X0052800Y0013800D03*
X0053100Y0014700D03*
X0054800Y0011100D03*
X0057800Y0011600D03*
X0058000Y0011400D03*
X0057000Y0019700D03*
D19*
X0053150Y0014800D03*
X0054950Y0011000D03*
X0055550Y0010500D03*
X0058150Y0011300D03*
X0059250Y0010200D03*
X0048950Y0010700D03*
X0048050Y0014300D03*
X0047950Y0014400D03*
X0033950Y0017200D03*
X0029150Y0006900D03*
D20*
X0029200Y0007000D03*
X0047900Y0014600D03*
X0049100Y0011000D03*
X0051400Y0009200D03*
X0052800Y0013400D03*
X0053200Y0015000D03*
X0057100Y0019600D03*
X0057200Y0012500D03*
X0057300Y0012400D03*
X0057400Y0012300D03*
X0057800Y0011800D03*
X0059200Y0010400D03*
D21*
X0059100Y0010600D03*
X0057800Y0011900D03*
X0057200Y0015600D03*
X0057100Y0015700D03*
X0057000Y0015800D03*
X0057000Y0015900D03*
X0057000Y0016000D03*
X0057000Y0016100D03*
X0053300Y0015100D03*
X0052800Y0013200D03*
X0040400Y0016900D03*
X0036800Y0011800D03*
X0033800Y0014400D03*
X0029200Y0007100D03*
D22*
X0029250Y0007200D03*
X0040750Y0016200D03*
X0045250Y0009400D03*
X0051250Y0009300D03*
X0052750Y0013100D03*
X0053350Y0015200D03*
X0054450Y0018400D03*
X0057250Y0019500D03*
X0057750Y0012000D03*
X0055550Y0010700D03*
X0047050Y0020800D03*
D23*
X0047650Y0016200D03*
X0048350Y0010500D03*
X0055450Y0010800D03*
X0059050Y0010800D03*
X0038950Y0017800D03*
X0036850Y0011900D03*
X0031050Y0017300D03*
X0029250Y0007300D03*
D24*
X0029350Y0007400D03*
X0031750Y0013400D03*
X0036950Y0012100D03*
X0038850Y0017500D03*
X0038850Y0017600D03*
X0040850Y0016800D03*
X0040850Y0016700D03*
X0040850Y0016600D03*
X0045450Y0009500D03*
X0051150Y0009400D03*
X0054350Y0018500D03*
X0057550Y0019300D03*
X0057750Y0019200D03*
D25*
X0057950Y0019100D03*
X0058450Y0018900D03*
X0051950Y0019600D03*
X0047450Y0015800D03*
X0033450Y0014600D03*
X0032150Y0013300D03*
X0031250Y0017200D03*
X0029050Y0015600D03*
X0033350Y0018200D03*
X0029350Y0007500D03*
D26*
X0029400Y0007600D03*
X0033400Y0012900D03*
X0033300Y0018300D03*
X0039000Y0017300D03*
X0051900Y0019500D03*
X0058200Y0019000D03*
D27*
X0051900Y0019300D03*
X0048800Y0020000D03*
X0047600Y0015600D03*
X0047700Y0015500D03*
X0050900Y0009500D03*
X0033300Y0013000D03*
X0033300Y0014700D03*
X0033200Y0018500D03*
X0029400Y0007700D03*
D28*
X0029450Y0007800D03*
X0029250Y0015500D03*
X0033150Y0018600D03*
X0039150Y0017200D03*
X0045850Y0009600D03*
X0047550Y0020500D03*
X0052450Y0019000D03*
D29*
X0053200Y0014900D03*
X0052800Y0013600D03*
X0049000Y0010800D03*
X0045000Y0009300D03*
X0047000Y0020900D03*
X0036800Y0011700D03*
X0031000Y0020600D03*
X0028600Y0007900D03*
X0057800Y0011700D03*
X0058300Y0011200D03*
X0059200Y0010300D03*
D30*
X0057500Y0014500D03*
X0055600Y0010400D03*
X0054100Y0011800D03*
X0054000Y0011900D03*
X0053900Y0012100D03*
X0052900Y0014100D03*
X0053000Y0014300D03*
X0051600Y0009000D03*
X0048700Y0012800D03*
X0048300Y0013800D03*
X0048300Y0017300D03*
X0048300Y0017500D03*
X0048300Y0017600D03*
X0048300Y0017700D03*
X0048300Y0017800D03*
X0048300Y0017900D03*
X0048300Y0018000D03*
X0048300Y0018100D03*
X0048300Y0018200D03*
X0048300Y0018300D03*
X0048400Y0018600D03*
X0046900Y0021000D03*
X0052700Y0020900D03*
X0052800Y0021100D03*
X0039300Y0020900D03*
X0033000Y0020900D03*
X0032800Y0021100D03*
X0032700Y0021200D03*
X0032600Y0021300D03*
X0032500Y0021400D03*
X0031900Y0022400D03*
X0032000Y0022600D03*
X0030000Y0019700D03*
X0030100Y0018800D03*
X0031800Y0019000D03*
X0028600Y0015900D03*
X0027600Y0013300D03*
X0027100Y0011900D03*
X0027100Y0011800D03*
X0027100Y0011700D03*
X0027100Y0011600D03*
X0027200Y0011400D03*
X0027200Y0011300D03*
X0027200Y0011200D03*
X0027300Y0011100D03*
X0027300Y0011000D03*
X0027300Y0010900D03*
X0027300Y0010800D03*
X0027400Y0010700D03*
X0027400Y0010600D03*
X0027400Y0010500D03*
X0027500Y0010400D03*
X0027500Y0010300D03*
X0027500Y0010200D03*
X0027600Y0010000D03*
X0027600Y0009900D03*
X0027700Y0009700D03*
X0027700Y0009600D03*
X0027800Y0009400D03*
X0027900Y0009100D03*
X0030600Y0007900D03*
X0030400Y0011200D03*
D31*
X0029050Y0013900D03*
X0028350Y0008200D03*
X0028350Y0008100D03*
X0044850Y0009200D03*
X0048150Y0014100D03*
X0052850Y0013900D03*
X0053050Y0014600D03*
X0054650Y0011200D03*
X0057850Y0011500D03*
X0054650Y0018200D03*
D32*
X0054750Y0015700D03*
X0055850Y0013500D03*
X0055950Y0013400D03*
X0056050Y0013300D03*
X0057750Y0013200D03*
X0057750Y0013100D03*
X0057750Y0013000D03*
X0057750Y0012900D03*
X0057750Y0012800D03*
X0057750Y0013700D03*
X0057750Y0013800D03*
X0057750Y0013900D03*
X0057750Y0014000D03*
X0056450Y0016300D03*
X0059450Y0009700D03*
X0051850Y0012100D03*
X0051850Y0012200D03*
X0048750Y0019100D03*
X0044550Y0009000D03*
X0041650Y0011500D03*
X0041450Y0011800D03*
X0041350Y0011900D03*
X0041350Y0012000D03*
X0041250Y0012100D03*
X0041150Y0012300D03*
X0040350Y0014600D03*
X0040250Y0015000D03*
X0040150Y0015300D03*
X0040150Y0015400D03*
X0040050Y0015800D03*
X0040050Y0015900D03*
X0038350Y0014700D03*
X0038350Y0014600D03*
X0038450Y0013800D03*
X0038350Y0013700D03*
X0038350Y0013500D03*
X0038350Y0013400D03*
X0038350Y0013300D03*
X0038350Y0013200D03*
X0038250Y0012900D03*
X0036150Y0012800D03*
X0034350Y0012600D03*
X0034350Y0012500D03*
X0033150Y0012600D03*
X0033750Y0010400D03*
X0033750Y0010300D03*
X0032150Y0011000D03*
X0032150Y0011100D03*
X0032250Y0011200D03*
X0032250Y0011300D03*
X0030950Y0012100D03*
X0030050Y0010600D03*
X0031050Y0008100D03*
X0030450Y0016300D03*
X0030450Y0016400D03*
X0032350Y0016300D03*
X0032650Y0017900D03*
X0032850Y0019800D03*
X0036350Y0008700D03*
D33*
X0036400Y0008400D03*
X0036100Y0010800D03*
X0034300Y0012100D03*
X0034300Y0012200D03*
X0033500Y0009700D03*
X0031900Y0010300D03*
X0031200Y0008200D03*
X0030400Y0016000D03*
X0030400Y0016100D03*
X0032500Y0016200D03*
X0033200Y0017300D03*
X0033100Y0017400D03*
X0033000Y0017500D03*
X0042000Y0011200D03*
X0050400Y0011400D03*
X0051800Y0011800D03*
X0051800Y0011900D03*
X0050300Y0014400D03*
X0052500Y0017400D03*
X0052200Y0018500D03*
X0055600Y0013800D03*
X0059500Y0014300D03*
X0059500Y0009600D03*
X0051800Y0008800D03*
D34*
X0054400Y0011400D03*
X0054500Y0011300D03*
X0053100Y0014500D03*
X0052900Y0021200D03*
X0053000Y0021300D03*
X0053100Y0021400D03*
X0049000Y0019700D03*
X0048200Y0014000D03*
X0048800Y0012600D03*
X0058600Y0018500D03*
X0059300Y0010100D03*
X0032000Y0022000D03*
X0031900Y0022200D03*
X0027800Y0013400D03*
X0028100Y0008600D03*
X0028200Y0008400D03*
X0028300Y0008300D03*
D35*
X0031900Y0010100D03*
X0031900Y0010200D03*
X0033500Y0009600D03*
X0034300Y0012000D03*
X0033200Y0012500D03*
X0033400Y0014200D03*
X0036300Y0013500D03*
X0036300Y0013400D03*
X0036400Y0008300D03*
X0030400Y0015900D03*
X0032900Y0019700D03*
X0034800Y0019500D03*
X0047000Y0016400D03*
X0049000Y0019300D03*
X0052300Y0018400D03*
X0052500Y0017600D03*
X0052500Y0017500D03*
X0055400Y0014100D03*
X0056400Y0016400D03*
X0050400Y0011600D03*
X0050200Y0011800D03*
X0050200Y0011300D03*
X0049700Y0012300D03*
X0049500Y0012500D03*
D36*
X0049550Y0012400D03*
X0049750Y0012200D03*
X0049850Y0012100D03*
X0049950Y0012000D03*
X0050050Y0011900D03*
X0050450Y0011500D03*
X0051750Y0011700D03*
X0055250Y0014300D03*
X0055250Y0014400D03*
X0054950Y0015800D03*
X0052550Y0017700D03*
X0052550Y0017800D03*
X0052450Y0018200D03*
X0052350Y0018300D03*
X0059650Y0014200D03*
X0041450Y0015900D03*
X0036750Y0011500D03*
X0036050Y0011200D03*
X0036050Y0011100D03*
X0035450Y0010800D03*
X0034450Y0011400D03*
X0034250Y0011900D03*
X0032850Y0011800D03*
X0032050Y0011800D03*
X0031550Y0008400D03*
X0036350Y0013600D03*
X0036350Y0013700D03*
X0032850Y0016000D03*
X0031350Y0017500D03*
D37*
X0030350Y0015800D03*
X0033550Y0011400D03*
X0035350Y0010900D03*
X0036050Y0011300D03*
X0036450Y0014000D03*
X0036450Y0014100D03*
X0040250Y0021700D03*
X0031650Y0008500D03*
X0050650Y0011300D03*
X0052550Y0017900D03*
X0055050Y0014600D03*
X0058550Y0013100D03*
X0058650Y0013000D03*
X0058750Y0012900D03*
X0058850Y0012800D03*
X0059050Y0012200D03*
X0059750Y0014100D03*
D38*
X0056900Y0019900D03*
X0055700Y0013700D03*
X0055800Y0013600D03*
X0055600Y0010300D03*
X0052400Y0017100D03*
X0052400Y0017200D03*
X0051800Y0012000D03*
X0046800Y0021100D03*
X0041400Y0016000D03*
X0041500Y0011700D03*
X0041600Y0011600D03*
X0039800Y0021500D03*
X0036200Y0013000D03*
X0036200Y0012900D03*
X0033300Y0014300D03*
X0032800Y0017700D03*
X0032700Y0017800D03*
X0031600Y0019100D03*
X0030400Y0016200D03*
X0031100Y0012200D03*
X0032100Y0010900D03*
X0032100Y0010800D03*
X0032000Y0010700D03*
X0032000Y0010600D03*
X0033600Y0010000D03*
X0033700Y0010100D03*
X0033700Y0010200D03*
X0036400Y0008600D03*
X0036400Y0008500D03*
X0030000Y0010500D03*
X0034500Y0019200D03*
X0034600Y0019300D03*
D39*
X0033100Y0015900D03*
X0032000Y0011900D03*
X0029900Y0010200D03*
X0028000Y0015000D03*
X0030700Y0020800D03*
X0036400Y0013900D03*
X0036400Y0013800D03*
X0035300Y0011000D03*
X0042300Y0011000D03*
X0050600Y0014200D03*
X0050700Y0014100D03*
X0052600Y0009900D03*
X0051900Y0008700D03*
X0055100Y0014500D03*
X0052500Y0018000D03*
X0052500Y0018100D03*
X0054000Y0021800D03*
X0058500Y0013200D03*
D40*
X0057850Y0013400D03*
X0057850Y0013500D03*
X0057650Y0014200D03*
X0056350Y0012900D03*
X0056450Y0012800D03*
X0056550Y0012700D03*
X0056250Y0013000D03*
X0054550Y0015600D03*
X0054350Y0015500D03*
X0054250Y0015400D03*
X0052550Y0015700D03*
X0052450Y0016200D03*
X0052450Y0016300D03*
X0052450Y0016500D03*
X0052350Y0016600D03*
X0052950Y0019700D03*
X0052850Y0019900D03*
X0053650Y0021700D03*
X0057650Y0017000D03*
X0057650Y0016900D03*
X0057650Y0016800D03*
X0057650Y0016700D03*
X0057650Y0016600D03*
X0057650Y0016400D03*
X0051950Y0012600D03*
X0051950Y0012500D03*
X0051750Y0008900D03*
X0048550Y0011200D03*
X0048550Y0011300D03*
X0048550Y0011400D03*
X0048550Y0011500D03*
X0048550Y0011600D03*
X0048550Y0011700D03*
X0048550Y0011900D03*
X0048550Y0013200D03*
X0048450Y0013400D03*
X0048350Y0016300D03*
X0048550Y0018900D03*
X0041350Y0016100D03*
X0039650Y0017900D03*
X0039650Y0018000D03*
X0039650Y0018100D03*
X0039650Y0018200D03*
X0039550Y0018600D03*
X0039550Y0018800D03*
X0038150Y0016500D03*
X0038250Y0016000D03*
X0038250Y0015900D03*
X0038250Y0015800D03*
X0038250Y0015700D03*
X0038250Y0015600D03*
X0038250Y0015500D03*
X0038150Y0012700D03*
X0035850Y0010700D03*
X0036350Y0009000D03*
X0036350Y0008900D03*
X0036350Y0008800D03*
X0033950Y0010800D03*
X0034050Y0011000D03*
X0032450Y0011600D03*
X0032450Y0011700D03*
X0032350Y0011500D03*
X0034450Y0013600D03*
X0034450Y0013800D03*
X0034450Y0013900D03*
X0034450Y0014000D03*
X0034450Y0014100D03*
X0034450Y0014200D03*
X0034450Y0014300D03*
X0034350Y0015000D03*
X0034350Y0015200D03*
X0034350Y0015400D03*
X0034350Y0015600D03*
X0034350Y0015800D03*
X0034350Y0016000D03*
X0034350Y0016200D03*
X0034350Y0017400D03*
X0034350Y0017600D03*
X0034350Y0017800D03*
X0034750Y0019700D03*
X0030850Y0020700D03*
X0030450Y0016500D03*
X0028050Y0015100D03*
X0030550Y0011800D03*
X0030250Y0011300D03*
X0030150Y0010800D03*
X0039450Y0021300D03*
D41*
X0038500Y0018000D03*
X0038300Y0018000D03*
X0036500Y0014300D03*
X0036500Y0014200D03*
X0037200Y0012600D03*
X0037100Y0011500D03*
X0036400Y0011500D03*
X0036000Y0011400D03*
X0035200Y0011100D03*
X0033500Y0011500D03*
X0033500Y0011600D03*
X0033500Y0009500D03*
X0031900Y0010000D03*
X0032000Y0012000D03*
X0031300Y0012300D03*
X0031100Y0012300D03*
X0031400Y0013700D03*
X0032000Y0013600D03*
X0033600Y0015000D03*
X0033300Y0015800D03*
X0031400Y0019200D03*
X0032200Y0020600D03*
X0030200Y0015000D03*
X0029400Y0015100D03*
X0028300Y0015000D03*
X0027700Y0015000D03*
X0029500Y0013500D03*
X0044400Y0008800D03*
X0046800Y0010500D03*
X0047800Y0009600D03*
X0048500Y0009600D03*
X0050800Y0011200D03*
X0050600Y0011800D03*
X0054600Y0015800D03*
X0055000Y0014700D03*
X0052000Y0019700D03*
X0050600Y0020200D03*
X0049100Y0019400D03*
X0048700Y0019600D03*
X0053700Y0021800D03*
X0059000Y0018400D03*
X0059500Y0009500D03*
D42*
X0057900Y0013300D03*
X0057600Y0014300D03*
X0057600Y0017100D03*
X0057700Y0017200D03*
X0057600Y0017300D03*
X0057600Y0017500D03*
X0054600Y0018100D03*
X0052900Y0019800D03*
X0052800Y0020000D03*
X0052800Y0020100D03*
X0052800Y0020200D03*
X0052700Y0020300D03*
X0052700Y0020400D03*
X0052400Y0016400D03*
X0052500Y0016100D03*
X0052500Y0016000D03*
X0052500Y0015900D03*
X0052500Y0015800D03*
X0052600Y0015600D03*
X0052600Y0015500D03*
X0052600Y0015400D03*
X0052700Y0015300D03*
X0053500Y0012800D03*
X0054100Y0015300D03*
X0052000Y0012700D03*
X0049900Y0014600D03*
X0048400Y0013600D03*
X0048400Y0013500D03*
X0048600Y0013100D03*
X0048400Y0016400D03*
X0048300Y0016500D03*
X0048300Y0016700D03*
X0048500Y0018800D03*
X0044700Y0009100D03*
X0039600Y0018300D03*
X0039600Y0018400D03*
X0039600Y0018500D03*
X0039600Y0018700D03*
X0039500Y0018900D03*
X0039500Y0019000D03*
X0039500Y0019100D03*
X0039500Y0019200D03*
X0039500Y0019300D03*
X0039400Y0019700D03*
X0039400Y0019800D03*
X0039400Y0019900D03*
X0039400Y0021200D03*
X0038100Y0016800D03*
X0038200Y0016400D03*
X0038200Y0016300D03*
X0038200Y0016200D03*
X0038200Y0016100D03*
X0035900Y0010600D03*
X0035900Y0010500D03*
X0036000Y0010400D03*
X0036000Y0010300D03*
X0036000Y0010200D03*
X0036100Y0010000D03*
X0036100Y0009900D03*
X0036200Y0009600D03*
X0036300Y0009300D03*
X0036300Y0009200D03*
X0036300Y0009100D03*
X0034000Y0010900D03*
X0034100Y0011100D03*
X0034500Y0013300D03*
X0034500Y0013400D03*
X0034500Y0013500D03*
X0034500Y0013700D03*
X0034300Y0018800D03*
X0034400Y0018900D03*
X0034500Y0019800D03*
X0032700Y0019900D03*
X0030200Y0018000D03*
X0030200Y0017900D03*
X0030200Y0017800D03*
X0030200Y0017600D03*
X0030300Y0017500D03*
X0027200Y0012900D03*
X0027100Y0012600D03*
X0030200Y0010900D03*
D43*
X0048400Y0020200D03*
X0050700Y0009600D03*
D44*
X0048400Y0009700D03*
D45*
X0052450Y0017300D03*
X0054650Y0018000D03*
X0055550Y0013900D03*
X0059350Y0014400D03*
X0048850Y0019200D03*
X0041750Y0011400D03*
X0041850Y0011300D03*
X0036250Y0013100D03*
X0034350Y0012400D03*
X0034350Y0012300D03*
X0033550Y0009900D03*
X0033550Y0009800D03*
X0031950Y0010400D03*
X0031950Y0010500D03*
X0032950Y0017600D03*
D46*
X0048000Y0009800D03*
D47*
X0047850Y0009900D03*
D48*
X0047700Y0010000D03*
D49*
X0047500Y0010100D03*
D50*
X0047400Y0010200D03*
X0032300Y0017100D03*
D51*
X0047250Y0010300D03*
D52*
X0047350Y0010400D03*
X0029650Y0015300D03*
D53*
X0030850Y0017400D03*
X0048950Y0019800D03*
X0052750Y0013300D03*
X0055150Y0010900D03*
X0055550Y0010600D03*
X0057150Y0012600D03*
X0057550Y0012200D03*
X0058650Y0011000D03*
X0059150Y0010500D03*
X0057050Y0016200D03*
X0049150Y0011100D03*
D54*
X0052800Y0012900D03*
X0052800Y0013000D03*
X0057800Y0012100D03*
X0059100Y0010700D03*
X0057600Y0015200D03*
X0057500Y0015300D03*
X0057400Y0015400D03*
X0057300Y0015500D03*
X0058600Y0018700D03*
X0057400Y0019400D03*
X0040800Y0016300D03*
X0028900Y0015700D03*
D55*
X0028750Y0015800D03*
X0028250Y0013500D03*
X0032250Y0018800D03*
X0047950Y0014500D03*
X0049050Y0010900D03*
X0052750Y0013500D03*
X0054550Y0018300D03*
X0058650Y0018600D03*
X0058450Y0011100D03*
D56*
X0059000Y0010900D03*
X0058200Y0014600D03*
X0058100Y0014700D03*
X0058000Y0014800D03*
X0057900Y0014900D03*
X0057800Y0015000D03*
X0057700Y0015100D03*
X0058500Y0018800D03*
X0047500Y0016100D03*
X0047200Y0020700D03*
X0040800Y0016500D03*
X0040800Y0016400D03*
X0038800Y0017700D03*
X0036900Y0012000D03*
X0033500Y0012800D03*
X0033600Y0014500D03*
X0033500Y0018000D03*
X0031100Y0013500D03*
X0029300Y0013800D03*
D57*
X0031900Y0015000D03*
X0033400Y0018100D03*
X0033300Y0020000D03*
X0037100Y0012500D03*
X0037100Y0012400D03*
X0037000Y0012300D03*
X0037000Y0012200D03*
X0038900Y0017400D03*
X0047400Y0015900D03*
X0047500Y0016000D03*
X0048900Y0019900D03*
D58*
X0047850Y0020400D03*
X0048250Y0015000D03*
X0048350Y0014900D03*
X0048450Y0014800D03*
X0048550Y0014700D03*
X0053350Y0018700D03*
X0039250Y0017100D03*
X0033150Y0013100D03*
D59*
X0033050Y0013200D03*
X0029450Y0015400D03*
D60*
X0029600Y0013600D03*
D61*
X0029400Y0013700D03*
X0033100Y0014800D03*
X0033100Y0016500D03*
X0033100Y0018700D03*
X0047800Y0015400D03*
X0047900Y0015300D03*
X0048000Y0015200D03*
X0048100Y0015100D03*
X0052700Y0018900D03*
X0053000Y0018800D03*
D62*
X0032900Y0014900D03*
D63*
X0033250Y0016400D03*
X0033250Y0018400D03*
X0033050Y0020100D03*
X0031250Y0015100D03*
X0047550Y0015700D03*
X0047350Y0020600D03*
X0051950Y0019400D03*
X0051950Y0019200D03*
X0052150Y0019100D03*
D64*
X0032400Y0016600D03*
X0032000Y0020200D03*
X0029900Y0015200D03*
D65*
X0032350Y0016700D03*
X0032350Y0016800D03*
X0032350Y0016900D03*
X0032350Y0017000D03*
D66*
X0039400Y0017000D03*
X0048100Y0020300D03*
D67*
X0048650Y0020100D03*
X0053650Y0018600D03*
D68*
X0032000Y0020300D03*
D69*
X0032000Y0020400D03*
D70*
X0032050Y0020500D03*
M02*
