G75*
%MOIN*%
%OFA0B0*%
%FSLAX25Y25*%
%IPPOS*%
%LPD*%
%AMOC8*
5,1,8,0,0,1.08239X$1,22.5*
%
%ADD10C,0.00000*%
%ADD11R,0.05512X0.05512*%
%ADD12R,0.03543X0.03150*%
%ADD13R,0.03150X0.03543*%
%ADD14C,0.05937*%
%ADD15R,0.03937X0.07087*%
%ADD16R,0.02717X0.04724*%
%ADD17C,0.02400*%
%ADD18C,0.01600*%
%ADD19C,0.00800*%
%ADD20C,0.02400*%
%ADD21C,0.03562*%
%ADD22C,0.01200*%
D10*
X0006400Y0008900D02*
X0006400Y0148900D01*
X0006402Y0149040D01*
X0006408Y0149180D01*
X0006418Y0149320D01*
X0006431Y0149460D01*
X0006449Y0149599D01*
X0006471Y0149738D01*
X0006496Y0149875D01*
X0006525Y0150013D01*
X0006558Y0150149D01*
X0006595Y0150284D01*
X0006636Y0150418D01*
X0006681Y0150551D01*
X0006729Y0150683D01*
X0006781Y0150813D01*
X0006836Y0150942D01*
X0006895Y0151069D01*
X0006958Y0151195D01*
X0007024Y0151319D01*
X0007093Y0151440D01*
X0007166Y0151560D01*
X0007243Y0151678D01*
X0007322Y0151793D01*
X0007405Y0151907D01*
X0007491Y0152017D01*
X0007580Y0152126D01*
X0007672Y0152232D01*
X0007767Y0152335D01*
X0007864Y0152436D01*
X0007965Y0152533D01*
X0008068Y0152628D01*
X0008174Y0152720D01*
X0008283Y0152809D01*
X0008393Y0152895D01*
X0008507Y0152978D01*
X0008622Y0153057D01*
X0008740Y0153134D01*
X0008860Y0153207D01*
X0008981Y0153276D01*
X0009105Y0153342D01*
X0009231Y0153405D01*
X0009358Y0153464D01*
X0009487Y0153519D01*
X0009617Y0153571D01*
X0009749Y0153619D01*
X0009882Y0153664D01*
X0010016Y0153705D01*
X0010151Y0153742D01*
X0010287Y0153775D01*
X0010425Y0153804D01*
X0010562Y0153829D01*
X0010701Y0153851D01*
X0010840Y0153869D01*
X0010980Y0153882D01*
X0011120Y0153892D01*
X0011260Y0153898D01*
X0011400Y0153900D01*
X0071400Y0153900D01*
X0071540Y0153898D01*
X0071680Y0153892D01*
X0071820Y0153882D01*
X0071960Y0153869D01*
X0072099Y0153851D01*
X0072238Y0153829D01*
X0072375Y0153804D01*
X0072513Y0153775D01*
X0072649Y0153742D01*
X0072784Y0153705D01*
X0072918Y0153664D01*
X0073051Y0153619D01*
X0073183Y0153571D01*
X0073313Y0153519D01*
X0073442Y0153464D01*
X0073569Y0153405D01*
X0073695Y0153342D01*
X0073819Y0153276D01*
X0073940Y0153207D01*
X0074060Y0153134D01*
X0074178Y0153057D01*
X0074293Y0152978D01*
X0074407Y0152895D01*
X0074517Y0152809D01*
X0074626Y0152720D01*
X0074732Y0152628D01*
X0074835Y0152533D01*
X0074936Y0152436D01*
X0075033Y0152335D01*
X0075128Y0152232D01*
X0075220Y0152126D01*
X0075309Y0152017D01*
X0075395Y0151907D01*
X0075478Y0151793D01*
X0075557Y0151678D01*
X0075634Y0151560D01*
X0075707Y0151440D01*
X0075776Y0151319D01*
X0075842Y0151195D01*
X0075905Y0151069D01*
X0075964Y0150942D01*
X0076019Y0150813D01*
X0076071Y0150683D01*
X0076119Y0150551D01*
X0076164Y0150418D01*
X0076205Y0150284D01*
X0076242Y0150149D01*
X0076275Y0150013D01*
X0076304Y0149875D01*
X0076329Y0149738D01*
X0076351Y0149599D01*
X0076369Y0149460D01*
X0076382Y0149320D01*
X0076392Y0149180D01*
X0076398Y0149040D01*
X0076400Y0148900D01*
X0076400Y0008900D01*
X0076398Y0008760D01*
X0076392Y0008620D01*
X0076382Y0008480D01*
X0076369Y0008340D01*
X0076351Y0008201D01*
X0076329Y0008062D01*
X0076304Y0007925D01*
X0076275Y0007787D01*
X0076242Y0007651D01*
X0076205Y0007516D01*
X0076164Y0007382D01*
X0076119Y0007249D01*
X0076071Y0007117D01*
X0076019Y0006987D01*
X0075964Y0006858D01*
X0075905Y0006731D01*
X0075842Y0006605D01*
X0075776Y0006481D01*
X0075707Y0006360D01*
X0075634Y0006240D01*
X0075557Y0006122D01*
X0075478Y0006007D01*
X0075395Y0005893D01*
X0075309Y0005783D01*
X0075220Y0005674D01*
X0075128Y0005568D01*
X0075033Y0005465D01*
X0074936Y0005364D01*
X0074835Y0005267D01*
X0074732Y0005172D01*
X0074626Y0005080D01*
X0074517Y0004991D01*
X0074407Y0004905D01*
X0074293Y0004822D01*
X0074178Y0004743D01*
X0074060Y0004666D01*
X0073940Y0004593D01*
X0073819Y0004524D01*
X0073695Y0004458D01*
X0073569Y0004395D01*
X0073442Y0004336D01*
X0073313Y0004281D01*
X0073183Y0004229D01*
X0073051Y0004181D01*
X0072918Y0004136D01*
X0072784Y0004095D01*
X0072649Y0004058D01*
X0072513Y0004025D01*
X0072375Y0003996D01*
X0072238Y0003971D01*
X0072099Y0003949D01*
X0071960Y0003931D01*
X0071820Y0003918D01*
X0071680Y0003908D01*
X0071540Y0003902D01*
X0071400Y0003900D01*
X0011400Y0003900D01*
X0011260Y0003902D01*
X0011120Y0003908D01*
X0010980Y0003918D01*
X0010840Y0003931D01*
X0010701Y0003949D01*
X0010562Y0003971D01*
X0010425Y0003996D01*
X0010287Y0004025D01*
X0010151Y0004058D01*
X0010016Y0004095D01*
X0009882Y0004136D01*
X0009749Y0004181D01*
X0009617Y0004229D01*
X0009487Y0004281D01*
X0009358Y0004336D01*
X0009231Y0004395D01*
X0009105Y0004458D01*
X0008981Y0004524D01*
X0008860Y0004593D01*
X0008740Y0004666D01*
X0008622Y0004743D01*
X0008507Y0004822D01*
X0008393Y0004905D01*
X0008283Y0004991D01*
X0008174Y0005080D01*
X0008068Y0005172D01*
X0007965Y0005267D01*
X0007864Y0005364D01*
X0007767Y0005465D01*
X0007672Y0005568D01*
X0007580Y0005674D01*
X0007491Y0005783D01*
X0007405Y0005893D01*
X0007322Y0006007D01*
X0007243Y0006122D01*
X0007166Y0006240D01*
X0007093Y0006360D01*
X0007024Y0006481D01*
X0006958Y0006605D01*
X0006895Y0006731D01*
X0006836Y0006858D01*
X0006781Y0006987D01*
X0006729Y0007117D01*
X0006681Y0007249D01*
X0006636Y0007382D01*
X0006595Y0007516D01*
X0006558Y0007651D01*
X0006525Y0007787D01*
X0006496Y0007925D01*
X0006471Y0008062D01*
X0006449Y0008201D01*
X0006431Y0008340D01*
X0006418Y0008480D01*
X0006408Y0008620D01*
X0006402Y0008760D01*
X0006400Y0008900D01*
D11*
X0040957Y0107650D03*
X0054343Y0107650D03*
X0062650Y0117670D03*
X0062650Y0132630D03*
X0054343Y0136400D03*
X0040957Y0136400D03*
D12*
X0040554Y0113900D03*
X0047246Y0113900D03*
D13*
X0046400Y0093496D03*
X0046400Y0086804D03*
X0036400Y0086804D03*
X0036400Y0093496D03*
D14*
X0011400Y0088900D03*
X0011400Y0078900D03*
X0011400Y0068900D03*
X0011400Y0058900D03*
X0011400Y0048900D03*
X0011400Y0038900D03*
X0011400Y0028900D03*
X0011400Y0098900D03*
X0011400Y0108900D03*
X0011400Y0118900D03*
X0011400Y0128900D03*
X0011400Y0138900D03*
X0011400Y0148900D03*
X0021400Y0148900D03*
X0031400Y0148900D03*
X0041400Y0148900D03*
X0051400Y0148900D03*
X0061400Y0148900D03*
X0071400Y0148900D03*
X0071400Y0138900D03*
X0071400Y0128900D03*
X0071400Y0118900D03*
X0071400Y0108900D03*
X0071400Y0098900D03*
X0071400Y0088900D03*
X0071400Y0078900D03*
X0071400Y0068900D03*
X0071400Y0058900D03*
X0071400Y0048900D03*
X0071400Y0038900D03*
X0071400Y0028900D03*
D15*
X0046321Y0078900D03*
X0036479Y0078900D03*
D16*
X0046410Y0118781D03*
X0046410Y0129019D03*
X0050150Y0129019D03*
X0053890Y0129019D03*
X0053890Y0118781D03*
D17*
X0055150Y0113900D02*
X0054343Y0113093D01*
X0054343Y0107650D01*
X0054343Y0106943D01*
X0053193Y0106943D01*
X0052650Y0106400D01*
X0049350Y0103200D01*
X0049600Y0102950D01*
X0047246Y0113900D02*
X0055150Y0113900D01*
X0057025Y0113900D01*
X0061420Y0117670D01*
X0062650Y0117670D01*
X0071400Y0108920D01*
X0071400Y0108900D01*
X0066400Y0123900D02*
X0050150Y0123900D01*
X0041804Y0123900D01*
X0040554Y0122650D01*
X0040554Y0135996D01*
X0040957Y0136400D01*
X0046410Y0132660D02*
X0046410Y0129019D01*
X0046410Y0132660D02*
X0050150Y0136400D01*
X0054343Y0136400D01*
X0053890Y0135947D01*
X0053890Y0129019D01*
X0055150Y0135593D02*
X0054343Y0136400D01*
X0056843Y0138900D01*
X0062650Y0138900D01*
X0071400Y0138900D01*
X0071400Y0128900D02*
X0066400Y0123900D01*
X0050150Y0123900D02*
X0050150Y0129019D01*
X0046410Y0118781D02*
X0046400Y0118772D01*
X0046400Y0115150D01*
X0047246Y0114304D01*
X0047246Y0113900D01*
X0040957Y0113093D02*
X0040957Y0107650D01*
X0040957Y0113093D02*
X0040150Y0113900D01*
X0040554Y0113900D02*
X0040554Y0122650D01*
X0024000Y0136700D02*
X0012000Y0148700D01*
D18*
X0024000Y0136700D02*
X0041325Y0136700D01*
X0041325Y0106475D02*
X0041325Y0093500D01*
X0036800Y0093500D01*
X0041325Y0093500D02*
X0046400Y0093500D01*
X0046400Y0093496D02*
X0055825Y0084071D01*
X0055825Y0066475D01*
X0055200Y0062675D02*
X0057900Y0062675D01*
X0059375Y0064250D01*
X0059375Y0084075D01*
X0049600Y0093850D01*
X0049600Y0102950D01*
X0062650Y0132630D02*
X0062650Y0138900D01*
X0024000Y0059900D02*
X0024000Y0051100D01*
X0028000Y0051100D01*
X0024000Y0051100D02*
X0024000Y0040625D01*
X0016225Y0032850D01*
X0016225Y0026625D01*
X0014750Y0024750D01*
X0014750Y0011800D01*
X0016800Y0009750D01*
X0024000Y0009750D01*
X0024000Y0009500D01*
X0024000Y0009750D02*
X0024000Y0022300D01*
X0026400Y0024700D01*
X0056800Y0024700D01*
D19*
X0062501Y0023591D02*
X0025949Y0023591D01*
X0025715Y0023357D01*
X0025715Y0005300D01*
X0011400Y0005300D01*
X0010698Y0005369D01*
X0009400Y0005907D01*
X0008407Y0006900D01*
X0007869Y0008198D01*
X0007800Y0008900D01*
X0007800Y0026698D01*
X0007866Y0026539D01*
X0009039Y0025366D01*
X0010571Y0024731D01*
X0012229Y0024731D01*
X0013761Y0025366D01*
X0014934Y0026539D01*
X0015568Y0028071D01*
X0015568Y0029729D01*
X0014934Y0031261D01*
X0013761Y0032434D01*
X0012229Y0033068D01*
X0010571Y0033068D01*
X0009039Y0032434D01*
X0007866Y0031261D01*
X0007800Y0031102D01*
X0007800Y0036698D01*
X0007866Y0036539D01*
X0009039Y0035366D01*
X0010571Y0034731D01*
X0012229Y0034731D01*
X0013761Y0035366D01*
X0014934Y0036539D01*
X0015568Y0038071D01*
X0015568Y0039729D01*
X0014934Y0041261D01*
X0013761Y0042434D01*
X0012229Y0043068D01*
X0010571Y0043068D01*
X0009039Y0042434D01*
X0007866Y0041261D01*
X0007800Y0041102D01*
X0007800Y0046698D01*
X0007866Y0046539D01*
X0009039Y0045366D01*
X0010571Y0044731D01*
X0012229Y0044731D01*
X0013761Y0045366D01*
X0014934Y0046539D01*
X0015568Y0048071D01*
X0015568Y0049729D01*
X0014934Y0051261D01*
X0014279Y0051916D01*
X0023063Y0060700D01*
X0023677Y0060700D01*
X0024559Y0061065D01*
X0024800Y0061306D01*
X0024800Y0057339D01*
X0024784Y0057323D01*
X0024800Y0056680D01*
X0024800Y0056037D01*
X0024816Y0056021D01*
X0024817Y0055997D01*
X0025283Y0055554D01*
X0025737Y0055100D01*
X0025761Y0055100D01*
X0038083Y0043379D01*
X0038537Y0042925D01*
X0038561Y0042925D01*
X0038577Y0042909D01*
X0039220Y0042925D01*
X0044000Y0042925D01*
X0044000Y0042798D01*
X0044134Y0042475D01*
X0028487Y0042475D01*
X0027550Y0041538D01*
X0016800Y0030788D01*
X0016800Y0025319D01*
X0016365Y0024884D01*
X0016000Y0024002D01*
X0016000Y0023048D01*
X0016365Y0022166D01*
X0017041Y0021490D01*
X0017703Y0021216D01*
X0016800Y0020313D01*
X0016800Y0018944D01*
X0016365Y0018509D01*
X0016000Y0017627D01*
X0016000Y0016673D01*
X0016365Y0015791D01*
X0017041Y0015115D01*
X0017923Y0014750D01*
X0018877Y0014750D01*
X0019759Y0015115D01*
X0020435Y0015791D01*
X0020800Y0016673D01*
X0020800Y0017627D01*
X0020435Y0018509D01*
X0020000Y0018944D01*
X0020000Y0018987D01*
X0022825Y0021812D01*
X0022825Y0029312D01*
X0025600Y0032087D01*
X0025600Y0031598D01*
X0025965Y0030716D01*
X0026641Y0030040D01*
X0027523Y0029675D01*
X0028137Y0029675D01*
X0028975Y0028837D01*
X0029912Y0027900D01*
X0067302Y0027900D01*
X0067866Y0026539D01*
X0069039Y0025366D01*
X0070571Y0024731D01*
X0072229Y0024731D01*
X0073761Y0025366D01*
X0074934Y0026539D01*
X0075000Y0026698D01*
X0075000Y0023575D01*
X0062517Y0023575D01*
X0062501Y0023591D01*
X0067652Y0027057D02*
X0022825Y0027057D01*
X0022825Y0027855D02*
X0067321Y0027855D01*
X0068147Y0026258D02*
X0022825Y0026258D01*
X0022825Y0025460D02*
X0068945Y0025460D01*
X0071400Y0028900D02*
X0071200Y0029500D01*
X0030575Y0029500D01*
X0028000Y0032075D01*
X0025827Y0031049D02*
X0024562Y0031049D01*
X0023764Y0030251D02*
X0026430Y0030251D01*
X0025600Y0031848D02*
X0025361Y0031848D01*
X0025775Y0034525D02*
X0029525Y0034525D01*
X0032950Y0031100D01*
X0048000Y0031100D01*
X0065600Y0048700D01*
X0071200Y0048700D01*
X0071400Y0048900D01*
X0067200Y0052700D02*
X0047200Y0032700D01*
X0035025Y0032700D01*
X0032800Y0034925D01*
X0029150Y0040875D02*
X0048975Y0040875D01*
X0050051Y0043027D02*
X0052864Y0043027D01*
X0052066Y0042229D02*
X0051012Y0042229D01*
X0051010Y0042234D02*
X0050334Y0042910D01*
X0049452Y0043275D01*
X0048800Y0043275D01*
X0048800Y0043752D01*
X0048435Y0044634D01*
X0047759Y0045310D01*
X0046877Y0045675D01*
X0046263Y0045675D01*
X0045903Y0046034D01*
X0046035Y0046166D01*
X0046400Y0047048D01*
X0046400Y0048002D01*
X0046035Y0048884D01*
X0045600Y0049319D01*
X0045600Y0064312D01*
X0045737Y0064175D01*
X0046225Y0063687D01*
X0046225Y0062973D01*
X0046590Y0062091D01*
X0047266Y0061415D01*
X0048148Y0061050D01*
X0049102Y0061050D01*
X0049984Y0061415D01*
X0050660Y0062091D01*
X0051025Y0062973D01*
X0051025Y0063927D01*
X0050951Y0064106D01*
X0051200Y0064209D01*
X0051200Y0051937D01*
X0052350Y0050787D01*
X0052350Y0050173D01*
X0052715Y0049291D01*
X0053391Y0048615D01*
X0053625Y0048518D01*
X0052941Y0048235D01*
X0052265Y0047559D01*
X0051900Y0046677D01*
X0051900Y0045723D01*
X0052265Y0044841D01*
X0052941Y0044165D01*
X0053692Y0043854D01*
X0051321Y0041483D01*
X0051010Y0042234D01*
X0052482Y0044624D02*
X0048439Y0044624D01*
X0048770Y0043826D02*
X0053663Y0043826D01*
X0052024Y0045423D02*
X0047487Y0045423D01*
X0046388Y0047020D02*
X0052042Y0047020D01*
X0051900Y0046221D02*
X0046058Y0046221D01*
X0046400Y0047818D02*
X0052524Y0047818D01*
X0053389Y0048617D02*
X0046146Y0048617D01*
X0045600Y0049415D02*
X0052664Y0049415D01*
X0052350Y0050214D02*
X0045600Y0050214D01*
X0045600Y0051012D02*
X0052125Y0051012D01*
X0051327Y0051811D02*
X0045600Y0051811D01*
X0045600Y0052609D02*
X0051200Y0052609D01*
X0051200Y0053408D02*
X0045600Y0053408D01*
X0045600Y0054206D02*
X0051200Y0054206D01*
X0051200Y0055005D02*
X0045600Y0055005D01*
X0045600Y0055803D02*
X0051200Y0055803D01*
X0051200Y0056602D02*
X0045600Y0056602D01*
X0045600Y0057400D02*
X0051200Y0057400D01*
X0051200Y0058199D02*
X0045600Y0058199D01*
X0045600Y0058997D02*
X0051200Y0058997D01*
X0051200Y0059796D02*
X0045600Y0059796D01*
X0045600Y0060594D02*
X0051200Y0060594D01*
X0051200Y0061393D02*
X0049930Y0061393D01*
X0050701Y0062191D02*
X0051200Y0062191D01*
X0051200Y0062990D02*
X0051025Y0062990D01*
X0051025Y0063788D02*
X0051200Y0063788D01*
X0050400Y0066475D02*
X0050400Y0073675D01*
X0047650Y0076400D01*
X0046400Y0077650D01*
X0046400Y0078300D01*
X0046321Y0078900D01*
X0046321Y0086804D01*
X0046400Y0086804D01*
X0047921Y0083832D02*
X0048472Y0083832D01*
X0049175Y0084535D01*
X0049175Y0089072D01*
X0048472Y0089775D01*
X0044328Y0089775D01*
X0043625Y0089072D01*
X0043625Y0084535D01*
X0044328Y0083832D01*
X0044721Y0083832D01*
X0044721Y0083643D01*
X0043856Y0083643D01*
X0043153Y0082940D01*
X0043153Y0074860D01*
X0043856Y0074157D01*
X0047641Y0074157D01*
X0048800Y0073008D01*
X0048800Y0068269D01*
X0048365Y0067834D01*
X0048000Y0066952D01*
X0048000Y0066438D01*
X0048000Y0068313D01*
X0039647Y0076665D01*
X0039647Y0082940D01*
X0038944Y0083643D01*
X0038000Y0083643D01*
X0038000Y0083832D01*
X0038472Y0083832D01*
X0039175Y0084535D01*
X0039175Y0089072D01*
X0038472Y0089775D01*
X0034400Y0089775D01*
X0034400Y0090389D01*
X0034641Y0090325D01*
X0036013Y0090325D01*
X0036013Y0093109D01*
X0036787Y0093109D01*
X0036787Y0090325D01*
X0038159Y0090325D01*
X0038515Y0090420D01*
X0038834Y0090605D01*
X0039095Y0090865D01*
X0039279Y0091184D01*
X0039375Y0091540D01*
X0039375Y0093109D01*
X0036787Y0093109D01*
X0036787Y0093884D01*
X0036013Y0093884D01*
X0036013Y0096668D01*
X0034641Y0096668D01*
X0034400Y0096604D01*
X0034400Y0108563D01*
X0033463Y0109500D01*
X0033463Y0109500D01*
X0022400Y0120563D01*
X0022400Y0129306D01*
X0022835Y0129741D01*
X0023146Y0130492D01*
X0024800Y0128837D01*
X0024800Y0128094D01*
X0024365Y0127659D01*
X0024000Y0126777D01*
X0024000Y0125823D01*
X0024365Y0124941D01*
X0025041Y0124265D01*
X0025923Y0123900D01*
X0026877Y0123900D01*
X0027759Y0124265D01*
X0028435Y0124941D01*
X0028800Y0125823D01*
X0028800Y0126777D01*
X0028435Y0127659D01*
X0028000Y0128094D01*
X0028000Y0130163D01*
X0027063Y0131100D01*
X0018263Y0139900D01*
X0015498Y0139900D01*
X0014934Y0141261D01*
X0013761Y0142434D01*
X0012229Y0143068D01*
X0010571Y0143068D01*
X0009039Y0142434D01*
X0007866Y0141261D01*
X0007800Y0141102D01*
X0007800Y0146423D01*
X0008068Y0146054D01*
X0008554Y0145568D01*
X0009110Y0145164D01*
X0009723Y0144852D01*
X0010377Y0144639D01*
X0011000Y0144540D01*
X0011000Y0148500D01*
X0011800Y0148500D01*
X0011800Y0149300D01*
X0015760Y0149300D01*
X0015661Y0149923D01*
X0015448Y0150577D01*
X0015136Y0151190D01*
X0014732Y0151746D01*
X0014246Y0152232D01*
X0013877Y0152500D01*
X0019198Y0152500D01*
X0019039Y0152434D01*
X0017866Y0151261D01*
X0017231Y0149729D01*
X0017231Y0148071D01*
X0017866Y0146539D01*
X0019039Y0145366D01*
X0020571Y0144731D01*
X0022229Y0144731D01*
X0023761Y0145366D01*
X0024934Y0146539D01*
X0025568Y0148071D01*
X0025568Y0149729D01*
X0024934Y0151261D01*
X0023761Y0152434D01*
X0023602Y0152500D01*
X0029198Y0152500D01*
X0029039Y0152434D01*
X0027866Y0151261D01*
X0027231Y0149729D01*
X0027231Y0148071D01*
X0027866Y0146539D01*
X0028280Y0146125D01*
X0027612Y0146125D01*
X0026675Y0145188D01*
X0024937Y0143450D01*
X0024000Y0142513D01*
X0024000Y0142394D01*
X0023565Y0141959D01*
X0023200Y0141077D01*
X0023200Y0140123D01*
X0023565Y0139241D01*
X0024241Y0138565D01*
X0025123Y0138200D01*
X0026077Y0138200D01*
X0026959Y0138565D01*
X0027635Y0139241D01*
X0028000Y0140123D01*
X0028000Y0141077D01*
X0027733Y0141721D01*
X0028938Y0142925D01*
X0030781Y0142925D01*
X0030615Y0142759D01*
X0030250Y0141877D01*
X0030250Y0140923D01*
X0030615Y0140041D01*
X0031291Y0139365D01*
X0032173Y0139000D01*
X0033127Y0139000D01*
X0034009Y0139365D01*
X0034685Y0140041D01*
X0035050Y0140923D01*
X0035050Y0141050D01*
X0045188Y0141050D01*
X0047063Y0142925D01*
X0057688Y0142925D01*
X0059810Y0145047D01*
X0060571Y0144731D01*
X0062229Y0144731D01*
X0063761Y0145366D01*
X0064934Y0146539D01*
X0065568Y0148071D01*
X0065568Y0149729D01*
X0064934Y0151261D01*
X0063761Y0152434D01*
X0063602Y0152500D01*
X0069198Y0152500D01*
X0069039Y0152434D01*
X0067866Y0151261D01*
X0067231Y0149729D01*
X0067231Y0148071D01*
X0067866Y0146539D01*
X0069039Y0145366D01*
X0070571Y0144731D01*
X0072229Y0144731D01*
X0073761Y0145366D01*
X0074934Y0146539D01*
X0075000Y0146698D01*
X0075000Y0141102D01*
X0074934Y0141261D01*
X0073761Y0142434D01*
X0072229Y0143068D01*
X0070571Y0143068D01*
X0069039Y0142434D01*
X0067905Y0141300D01*
X0056366Y0141300D01*
X0055483Y0140935D01*
X0054905Y0140356D01*
X0051090Y0140356D01*
X0050387Y0139653D01*
X0050387Y0138800D01*
X0049673Y0138800D01*
X0048791Y0138435D01*
X0048115Y0137759D01*
X0045113Y0134757D01*
X0045113Y0136000D01*
X0041357Y0136000D01*
X0041357Y0132244D01*
X0043897Y0132244D01*
X0044010Y0132274D01*
X0044010Y0132036D01*
X0043852Y0131878D01*
X0043852Y0126159D01*
X0044555Y0125456D01*
X0048070Y0125456D01*
X0048251Y0125352D01*
X0048607Y0125256D01*
X0049871Y0125256D01*
X0049871Y0128739D01*
X0050429Y0128739D01*
X0050429Y0125256D01*
X0051693Y0125256D01*
X0052049Y0125352D01*
X0052230Y0125456D01*
X0055745Y0125456D01*
X0056448Y0126159D01*
X0056448Y0131878D01*
X0056290Y0132036D01*
X0056290Y0132444D01*
X0057596Y0132444D01*
X0058299Y0133147D01*
X0058299Y0136500D01*
X0059311Y0136500D01*
X0058694Y0135883D01*
X0058694Y0129377D01*
X0059397Y0128674D01*
X0065903Y0128674D01*
X0066606Y0129377D01*
X0066606Y0135883D01*
X0065989Y0136500D01*
X0067905Y0136500D01*
X0069039Y0135366D01*
X0070571Y0134731D01*
X0072229Y0134731D01*
X0073761Y0135366D01*
X0074934Y0136539D01*
X0075000Y0136698D01*
X0075000Y0131377D01*
X0074732Y0131746D01*
X0074246Y0132232D01*
X0073690Y0132636D01*
X0073077Y0132948D01*
X0072423Y0133161D01*
X0071800Y0133260D01*
X0071800Y0129300D01*
X0071000Y0129300D01*
X0071000Y0133260D01*
X0070377Y0133161D01*
X0069723Y0132948D01*
X0069110Y0132636D01*
X0068554Y0132232D01*
X0068068Y0131746D01*
X0067664Y0131190D01*
X0067352Y0130577D01*
X0067139Y0129923D01*
X0067040Y0129300D01*
X0071000Y0129300D01*
X0071000Y0128500D01*
X0071800Y0128500D01*
X0071800Y0124540D01*
X0072423Y0124639D01*
X0073077Y0124852D01*
X0073690Y0125164D01*
X0074246Y0125568D01*
X0074732Y0126054D01*
X0075000Y0126423D01*
X0075000Y0121102D01*
X0074934Y0121261D01*
X0073761Y0122434D01*
X0072229Y0123068D01*
X0070571Y0123068D01*
X0069039Y0122434D01*
X0067866Y0121261D01*
X0067231Y0119729D01*
X0067231Y0118071D01*
X0067866Y0116539D01*
X0069039Y0115366D01*
X0070571Y0114731D01*
X0072229Y0114731D01*
X0073761Y0115366D01*
X0074934Y0116539D01*
X0075000Y0116698D01*
X0075000Y0111102D01*
X0074934Y0111261D01*
X0073761Y0112434D01*
X0072229Y0113068D01*
X0070645Y0113068D01*
X0066606Y0117108D01*
X0066606Y0120923D01*
X0065903Y0121626D01*
X0059397Y0121626D01*
X0058694Y0120923D01*
X0058694Y0118494D01*
X0056448Y0116567D01*
X0056448Y0121641D01*
X0055745Y0122344D01*
X0052035Y0122344D01*
X0051332Y0121641D01*
X0051332Y0116300D01*
X0049890Y0116300D01*
X0049515Y0116675D01*
X0048968Y0116675D01*
X0048968Y0121641D01*
X0048265Y0122344D01*
X0044555Y0122344D01*
X0043852Y0121641D01*
X0043852Y0115922D01*
X0044000Y0115774D01*
X0044000Y0114673D01*
X0044275Y0114009D01*
X0044275Y0111828D01*
X0044978Y0111125D01*
X0049515Y0111125D01*
X0049890Y0111500D01*
X0050984Y0111500D01*
X0050387Y0110903D01*
X0050387Y0107549D01*
X0048977Y0106181D01*
X0048757Y0106181D01*
X0047661Y0105727D01*
X0046823Y0104889D01*
X0046369Y0103793D01*
X0046369Y0102607D01*
X0046823Y0101511D01*
X0047600Y0100734D01*
X0047600Y0096668D01*
X0046787Y0096668D01*
X0046787Y0093884D01*
X0046013Y0093884D01*
X0046013Y0096668D01*
X0044641Y0096668D01*
X0044285Y0096573D01*
X0043966Y0096388D01*
X0043705Y0096128D01*
X0043521Y0095808D01*
X0043425Y0095452D01*
X0043425Y0093884D01*
X0046013Y0093884D01*
X0046013Y0093109D01*
X0046787Y0093109D01*
X0046787Y0090325D01*
X0048159Y0090325D01*
X0048515Y0090420D01*
X0048834Y0090605D01*
X0049095Y0090865D01*
X0049279Y0091184D01*
X0049313Y0091309D01*
X0057375Y0083247D01*
X0057375Y0065040D01*
X0057033Y0064675D01*
X0056594Y0064675D01*
X0056559Y0064710D01*
X0055677Y0065075D01*
X0054723Y0065075D01*
X0054400Y0064941D01*
X0054400Y0078306D01*
X0054910Y0078816D01*
X0055275Y0079698D01*
X0055275Y0080652D01*
X0054910Y0081534D01*
X0054234Y0082210D01*
X0053352Y0082575D01*
X0052398Y0082575D01*
X0051516Y0082210D01*
X0050840Y0081534D01*
X0050475Y0080652D01*
X0050475Y0079698D01*
X0050840Y0078816D01*
X0051176Y0078479D01*
X0051165Y0078279D01*
X0051200Y0078240D01*
X0051200Y0075138D01*
X0051063Y0075275D01*
X0051058Y0075275D01*
X0049490Y0076829D01*
X0049490Y0082940D01*
X0048787Y0083643D01*
X0047921Y0083643D01*
X0047921Y0083832D01*
X0047921Y0083751D02*
X0056870Y0083751D01*
X0057375Y0082953D02*
X0049477Y0082953D01*
X0049490Y0082154D02*
X0051460Y0082154D01*
X0050766Y0081356D02*
X0049490Y0081356D01*
X0049490Y0080557D02*
X0050475Y0080557D01*
X0050475Y0079759D02*
X0049490Y0079759D01*
X0049490Y0078960D02*
X0050780Y0078960D01*
X0051200Y0078162D02*
X0049490Y0078162D01*
X0049490Y0077363D02*
X0051200Y0077363D01*
X0051200Y0076565D02*
X0049757Y0076565D01*
X0050563Y0075766D02*
X0051200Y0075766D01*
X0052800Y0078850D02*
X0052875Y0080175D01*
X0052800Y0078850D02*
X0052800Y0052600D01*
X0054750Y0050650D01*
X0054300Y0046200D02*
X0064000Y0055900D01*
X0064000Y0086125D01*
X0056625Y0093500D01*
X0056625Y0096075D01*
X0054400Y0098300D01*
X0054400Y0100700D01*
X0052775Y0095100D02*
X0052775Y0095025D01*
X0061600Y0086200D01*
X0061600Y0061850D01*
X0057375Y0065385D02*
X0054400Y0065385D01*
X0054400Y0066184D02*
X0057375Y0066184D01*
X0057375Y0066982D02*
X0054400Y0066982D01*
X0054400Y0067781D02*
X0057375Y0067781D01*
X0057375Y0068579D02*
X0054400Y0068579D01*
X0054400Y0069378D02*
X0057375Y0069378D01*
X0057375Y0070176D02*
X0054400Y0070176D01*
X0054400Y0070975D02*
X0057375Y0070975D01*
X0057375Y0071773D02*
X0054400Y0071773D01*
X0054400Y0072572D02*
X0057375Y0072572D01*
X0057375Y0073370D02*
X0054400Y0073370D01*
X0054400Y0074169D02*
X0057375Y0074169D01*
X0057375Y0074968D02*
X0054400Y0074968D01*
X0054400Y0075766D02*
X0057375Y0075766D01*
X0057375Y0076565D02*
X0054400Y0076565D01*
X0054400Y0077363D02*
X0057375Y0077363D01*
X0057375Y0078162D02*
X0054400Y0078162D01*
X0054969Y0078960D02*
X0057375Y0078960D01*
X0057375Y0079759D02*
X0055275Y0079759D01*
X0055275Y0080557D02*
X0057375Y0080557D01*
X0057375Y0081356D02*
X0054984Y0081356D01*
X0054290Y0082154D02*
X0057375Y0082154D01*
X0056072Y0084550D02*
X0049175Y0084550D01*
X0049175Y0085348D02*
X0055273Y0085348D01*
X0054475Y0086147D02*
X0049175Y0086147D01*
X0049175Y0086945D02*
X0053676Y0086945D01*
X0052878Y0087744D02*
X0049175Y0087744D01*
X0049175Y0088542D02*
X0052079Y0088542D01*
X0051281Y0089341D02*
X0048906Y0089341D01*
X0049137Y0090938D02*
X0049684Y0090938D01*
X0050482Y0090139D02*
X0034400Y0090139D01*
X0036013Y0090938D02*
X0036787Y0090938D01*
X0036787Y0091736D02*
X0036013Y0091736D01*
X0036013Y0092535D02*
X0036787Y0092535D01*
X0036787Y0093333D02*
X0046013Y0093333D01*
X0046013Y0093109D02*
X0043425Y0093109D01*
X0043425Y0091540D01*
X0043521Y0091184D01*
X0043705Y0090865D01*
X0043966Y0090605D01*
X0044285Y0090420D01*
X0044641Y0090325D01*
X0046013Y0090325D01*
X0046013Y0093109D01*
X0046400Y0093496D02*
X0046400Y0092700D01*
X0046013Y0092535D02*
X0046787Y0092535D01*
X0046787Y0091736D02*
X0046013Y0091736D01*
X0046013Y0090938D02*
X0046787Y0090938D01*
X0046400Y0093496D02*
X0046400Y0093500D01*
X0046013Y0094132D02*
X0046787Y0094132D01*
X0046787Y0094930D02*
X0046013Y0094930D01*
X0046013Y0095729D02*
X0046787Y0095729D01*
X0046787Y0096527D02*
X0046013Y0096527D01*
X0047600Y0097326D02*
X0034400Y0097326D01*
X0034400Y0098124D02*
X0047600Y0098124D01*
X0047600Y0098923D02*
X0034400Y0098923D01*
X0034400Y0099721D02*
X0047600Y0099721D01*
X0047600Y0100520D02*
X0034400Y0100520D01*
X0034400Y0101318D02*
X0047016Y0101318D01*
X0046572Y0102117D02*
X0034400Y0102117D01*
X0034400Y0102915D02*
X0046369Y0102915D01*
X0046369Y0103714D02*
X0044469Y0103714D01*
X0044573Y0103774D02*
X0044833Y0104034D01*
X0045018Y0104354D01*
X0045113Y0104710D01*
X0045113Y0107250D01*
X0041357Y0107250D01*
X0041357Y0103494D01*
X0043897Y0103494D01*
X0044253Y0103590D01*
X0044573Y0103774D01*
X0045060Y0104512D02*
X0046667Y0104512D01*
X0047245Y0105311D02*
X0045113Y0105311D01*
X0045113Y0106109D02*
X0048584Y0106109D01*
X0049726Y0106908D02*
X0045113Y0106908D01*
X0045113Y0108050D02*
X0045113Y0110590D01*
X0045018Y0110946D01*
X0044833Y0111266D01*
X0044573Y0111526D01*
X0044253Y0111710D01*
X0043897Y0111806D01*
X0043635Y0111806D01*
X0043725Y0112141D01*
X0043725Y0113513D01*
X0040941Y0113513D01*
X0040941Y0114287D01*
X0043725Y0114287D01*
X0043725Y0115659D01*
X0043630Y0116015D01*
X0043445Y0116334D01*
X0043185Y0116595D01*
X0042866Y0116779D01*
X0042510Y0116875D01*
X0040941Y0116875D01*
X0040941Y0114287D01*
X0040166Y0114287D01*
X0040166Y0113513D01*
X0037382Y0113513D01*
X0037382Y0112141D01*
X0037477Y0111785D01*
X0037555Y0111650D01*
X0037342Y0111526D01*
X0037081Y0111266D01*
X0036897Y0110946D01*
X0036801Y0110590D01*
X0036801Y0108050D01*
X0040557Y0108050D01*
X0040557Y0107250D01*
X0036801Y0107250D01*
X0036801Y0104710D01*
X0036897Y0104354D01*
X0037081Y0104034D01*
X0037342Y0103774D01*
X0037661Y0103590D01*
X0038017Y0103494D01*
X0040557Y0103494D01*
X0040557Y0107250D01*
X0041357Y0107250D01*
X0041357Y0108050D01*
X0040557Y0108050D01*
X0040557Y0111806D01*
X0040166Y0111806D01*
X0040166Y0113513D01*
X0040941Y0113513D01*
X0040941Y0110925D01*
X0041357Y0110925D01*
X0041357Y0108050D01*
X0045113Y0108050D01*
X0045113Y0108505D02*
X0050387Y0108505D01*
X0050387Y0109303D02*
X0045113Y0109303D01*
X0045113Y0110102D02*
X0050387Y0110102D01*
X0050387Y0110901D02*
X0045030Y0110901D01*
X0044404Y0111699D02*
X0044273Y0111699D01*
X0044275Y0112498D02*
X0043725Y0112498D01*
X0043725Y0113296D02*
X0044275Y0113296D01*
X0044239Y0114095D02*
X0040941Y0114095D01*
X0040554Y0113900D02*
X0040150Y0113900D01*
X0040166Y0114095D02*
X0028868Y0114095D01*
X0028070Y0114893D02*
X0037382Y0114893D01*
X0037382Y0114287D02*
X0040166Y0114287D01*
X0040166Y0116875D01*
X0038598Y0116875D01*
X0038241Y0116779D01*
X0037922Y0116595D01*
X0037662Y0116334D01*
X0037477Y0116015D01*
X0037382Y0115659D01*
X0037382Y0114287D01*
X0037382Y0113296D02*
X0029667Y0113296D01*
X0030465Y0112498D02*
X0037382Y0112498D01*
X0037527Y0111699D02*
X0031264Y0111699D01*
X0032062Y0110901D02*
X0036884Y0110901D01*
X0036801Y0110102D02*
X0032861Y0110102D01*
X0033659Y0109303D02*
X0036801Y0109303D01*
X0036801Y0108505D02*
X0034400Y0108505D01*
X0034400Y0107706D02*
X0040557Y0107706D01*
X0040957Y0107650D02*
X0041325Y0106475D01*
X0041357Y0106109D02*
X0040557Y0106109D01*
X0040557Y0105311D02*
X0041357Y0105311D01*
X0041357Y0104512D02*
X0040557Y0104512D01*
X0040557Y0103714D02*
X0041357Y0103714D01*
X0041357Y0106908D02*
X0040557Y0106908D01*
X0040957Y0107650D02*
X0043200Y0107900D01*
X0041357Y0107706D02*
X0050387Y0107706D01*
X0049700Y0116490D02*
X0051332Y0116490D01*
X0051332Y0117289D02*
X0048968Y0117289D01*
X0048968Y0118087D02*
X0051332Y0118087D01*
X0051332Y0118886D02*
X0048968Y0118886D01*
X0048968Y0119684D02*
X0051332Y0119684D01*
X0051332Y0120483D02*
X0048968Y0120483D01*
X0048968Y0121281D02*
X0051332Y0121281D01*
X0051771Y0122080D02*
X0048529Y0122080D01*
X0048542Y0125274D02*
X0028573Y0125274D01*
X0028800Y0126072D02*
X0043939Y0126072D01*
X0043852Y0126871D02*
X0028761Y0126871D01*
X0028425Y0127669D02*
X0043852Y0127669D01*
X0043852Y0128468D02*
X0028000Y0128468D01*
X0028000Y0129266D02*
X0043852Y0129266D01*
X0043852Y0130065D02*
X0028000Y0130065D01*
X0027299Y0130863D02*
X0043852Y0130863D01*
X0043852Y0131662D02*
X0026501Y0131662D01*
X0025702Y0132460D02*
X0037452Y0132460D01*
X0037342Y0132524D02*
X0037661Y0132340D01*
X0038017Y0132244D01*
X0040557Y0132244D01*
X0040557Y0136000D01*
X0036801Y0136000D01*
X0036801Y0133460D01*
X0036897Y0133104D01*
X0037081Y0132784D01*
X0037342Y0132524D01*
X0036855Y0133259D02*
X0024904Y0133259D01*
X0024105Y0134057D02*
X0036801Y0134057D01*
X0036801Y0134856D02*
X0023307Y0134856D01*
X0022508Y0135654D02*
X0036801Y0135654D01*
X0036801Y0136800D02*
X0040557Y0136800D01*
X0040557Y0136000D01*
X0041357Y0136000D01*
X0041357Y0136800D01*
X0040557Y0136800D01*
X0040557Y0140556D01*
X0038017Y0140556D01*
X0037661Y0140460D01*
X0037342Y0140276D01*
X0037081Y0140016D01*
X0036897Y0139696D01*
X0036801Y0139340D01*
X0036801Y0136800D01*
X0036801Y0137251D02*
X0020911Y0137251D01*
X0021710Y0136453D02*
X0040557Y0136453D01*
X0040957Y0136400D02*
X0041325Y0136700D01*
X0041357Y0136800D02*
X0045113Y0136800D01*
X0045113Y0139340D01*
X0045018Y0139696D01*
X0044833Y0140016D01*
X0044573Y0140276D01*
X0044253Y0140460D01*
X0043897Y0140556D01*
X0041357Y0140556D01*
X0041357Y0136800D01*
X0041357Y0136453D02*
X0046809Y0136453D01*
X0047607Y0137251D02*
X0045113Y0137251D01*
X0045113Y0138050D02*
X0048406Y0138050D01*
X0050387Y0138848D02*
X0045113Y0138848D01*
X0045031Y0139647D02*
X0050387Y0139647D01*
X0046979Y0142841D02*
X0070022Y0142841D01*
X0068647Y0142042D02*
X0046180Y0142042D01*
X0045382Y0141244D02*
X0056230Y0141244D01*
X0054994Y0140445D02*
X0044279Y0140445D01*
X0044525Y0142650D02*
X0046400Y0144525D01*
X0057025Y0144525D01*
X0061400Y0148900D01*
X0063448Y0145237D02*
X0069352Y0145237D01*
X0068370Y0146035D02*
X0064430Y0146035D01*
X0065056Y0146834D02*
X0067744Y0146834D01*
X0067413Y0147632D02*
X0065387Y0147632D01*
X0065568Y0148431D02*
X0067231Y0148431D01*
X0067231Y0149229D02*
X0065568Y0149229D01*
X0065445Y0150028D02*
X0067355Y0150028D01*
X0067686Y0150826D02*
X0065114Y0150826D01*
X0064571Y0151625D02*
X0068229Y0151625D01*
X0069028Y0152423D02*
X0063772Y0152423D01*
X0059201Y0144438D02*
X0075000Y0144438D01*
X0075000Y0145237D02*
X0073448Y0145237D01*
X0074430Y0146035D02*
X0075000Y0146035D01*
X0075000Y0143639D02*
X0058402Y0143639D01*
X0058299Y0136453D02*
X0059264Y0136453D01*
X0058694Y0135654D02*
X0058299Y0135654D01*
X0058299Y0134856D02*
X0058694Y0134856D01*
X0058694Y0134057D02*
X0058299Y0134057D01*
X0058299Y0133259D02*
X0058694Y0133259D01*
X0058694Y0132460D02*
X0057612Y0132460D01*
X0058694Y0131662D02*
X0056448Y0131662D01*
X0056448Y0130863D02*
X0058694Y0130863D01*
X0058694Y0130065D02*
X0056448Y0130065D01*
X0056448Y0129266D02*
X0058805Y0129266D01*
X0056448Y0128468D02*
X0067045Y0128468D01*
X0067040Y0128500D02*
X0067139Y0127877D01*
X0067352Y0127223D01*
X0067664Y0126610D01*
X0068068Y0126054D01*
X0068554Y0125568D01*
X0069110Y0125164D01*
X0069723Y0124852D01*
X0070377Y0124639D01*
X0071000Y0124540D01*
X0071000Y0128500D01*
X0067040Y0128500D01*
X0067207Y0127669D02*
X0056448Y0127669D01*
X0056448Y0126871D02*
X0067531Y0126871D01*
X0068055Y0126072D02*
X0056361Y0126072D01*
X0056009Y0122080D02*
X0068685Y0122080D01*
X0067886Y0121281D02*
X0066247Y0121281D01*
X0066606Y0120483D02*
X0067544Y0120483D01*
X0067231Y0119684D02*
X0066606Y0119684D01*
X0066606Y0118886D02*
X0067231Y0118886D01*
X0067231Y0118087D02*
X0066606Y0118087D01*
X0066606Y0117289D02*
X0067555Y0117289D01*
X0067224Y0116490D02*
X0067915Y0116490D01*
X0068022Y0115692D02*
X0068713Y0115692D01*
X0068821Y0114893D02*
X0070181Y0114893D01*
X0069619Y0114095D02*
X0075000Y0114095D01*
X0075000Y0114893D02*
X0072619Y0114893D01*
X0073608Y0112498D02*
X0075000Y0112498D01*
X0075000Y0113296D02*
X0070418Y0113296D01*
X0074496Y0111699D02*
X0075000Y0111699D01*
X0075000Y0115692D02*
X0074087Y0115692D01*
X0074885Y0116490D02*
X0075000Y0116490D01*
X0074914Y0121281D02*
X0075000Y0121281D01*
X0075000Y0122080D02*
X0074115Y0122080D01*
X0075000Y0122878D02*
X0072689Y0122878D01*
X0071800Y0125274D02*
X0071000Y0125274D01*
X0071000Y0126072D02*
X0071800Y0126072D01*
X0071800Y0126871D02*
X0071000Y0126871D01*
X0071000Y0127669D02*
X0071800Y0127669D01*
X0071800Y0128468D02*
X0071000Y0128468D01*
X0071000Y0129266D02*
X0066495Y0129266D01*
X0066606Y0130065D02*
X0067185Y0130065D01*
X0067497Y0130863D02*
X0066606Y0130863D01*
X0066606Y0131662D02*
X0068007Y0131662D01*
X0068868Y0132460D02*
X0066606Y0132460D01*
X0066606Y0133259D02*
X0070995Y0133259D01*
X0071000Y0133259D02*
X0071800Y0133259D01*
X0071805Y0133259D02*
X0075000Y0133259D01*
X0075000Y0134057D02*
X0066606Y0134057D01*
X0066606Y0134856D02*
X0070271Y0134856D01*
X0068750Y0135654D02*
X0066606Y0135654D01*
X0066036Y0136453D02*
X0067952Y0136453D01*
X0071000Y0132460D02*
X0071800Y0132460D01*
X0071800Y0131662D02*
X0071000Y0131662D01*
X0071000Y0130863D02*
X0071800Y0130863D01*
X0071800Y0130065D02*
X0071000Y0130065D01*
X0072529Y0134856D02*
X0075000Y0134856D01*
X0075000Y0135654D02*
X0074050Y0135654D01*
X0074848Y0136453D02*
X0075000Y0136453D01*
X0075000Y0132460D02*
X0073932Y0132460D01*
X0074793Y0131662D02*
X0075000Y0131662D01*
X0075000Y0126072D02*
X0074745Y0126072D01*
X0075000Y0125274D02*
X0073841Y0125274D01*
X0075000Y0124475D02*
X0027969Y0124475D01*
X0026400Y0126300D02*
X0026400Y0129500D01*
X0017600Y0138300D01*
X0012000Y0138300D01*
X0011400Y0138900D01*
X0010022Y0142841D02*
X0007800Y0142841D01*
X0007800Y0143639D02*
X0025127Y0143639D01*
X0024328Y0142841D02*
X0012778Y0142841D01*
X0012423Y0144639D02*
X0011800Y0144540D01*
X0011800Y0148500D01*
X0015760Y0148500D01*
X0015661Y0147877D01*
X0015448Y0147223D01*
X0015136Y0146610D01*
X0014732Y0146054D01*
X0014246Y0145568D01*
X0013690Y0145164D01*
X0013077Y0144852D01*
X0012423Y0144639D01*
X0011800Y0145237D02*
X0011000Y0145237D01*
X0011000Y0146035D02*
X0011800Y0146035D01*
X0011800Y0146834D02*
X0011000Y0146834D01*
X0011000Y0147632D02*
X0011800Y0147632D01*
X0011800Y0148431D02*
X0011000Y0148431D01*
X0011400Y0148900D02*
X0012000Y0148700D01*
X0011800Y0149229D02*
X0017231Y0149229D01*
X0017231Y0148431D02*
X0015749Y0148431D01*
X0015581Y0147632D02*
X0017413Y0147632D01*
X0017744Y0146834D02*
X0015250Y0146834D01*
X0014713Y0146035D02*
X0018370Y0146035D01*
X0019352Y0145237D02*
X0013790Y0145237D01*
X0014153Y0142042D02*
X0023648Y0142042D01*
X0023269Y0141244D02*
X0014941Y0141244D01*
X0015272Y0140445D02*
X0023200Y0140445D01*
X0023397Y0139647D02*
X0018516Y0139647D01*
X0019314Y0138848D02*
X0023957Y0138848D01*
X0025600Y0140600D02*
X0025600Y0141850D01*
X0028275Y0144525D01*
X0043900Y0144525D01*
X0048275Y0148900D01*
X0051400Y0148900D01*
X0044525Y0142650D02*
X0033900Y0142650D01*
X0032650Y0141400D01*
X0034291Y0139647D02*
X0036883Y0139647D01*
X0036801Y0138848D02*
X0027243Y0138848D01*
X0027803Y0139647D02*
X0031009Y0139647D01*
X0030448Y0140445D02*
X0028000Y0140445D01*
X0027931Y0141244D02*
X0030250Y0141244D01*
X0030318Y0142042D02*
X0028055Y0142042D01*
X0028854Y0142841D02*
X0030697Y0142841D01*
X0027522Y0146035D02*
X0024430Y0146035D01*
X0025056Y0146834D02*
X0027744Y0146834D01*
X0027413Y0147632D02*
X0025387Y0147632D01*
X0025568Y0148431D02*
X0027231Y0148431D01*
X0027231Y0149229D02*
X0025568Y0149229D01*
X0025445Y0150028D02*
X0027355Y0150028D01*
X0027686Y0150826D02*
X0025114Y0150826D01*
X0024571Y0151625D02*
X0028229Y0151625D01*
X0029028Y0152423D02*
X0023772Y0152423D01*
X0023448Y0145237D02*
X0026724Y0145237D01*
X0025925Y0144438D02*
X0007800Y0144438D01*
X0007800Y0145237D02*
X0009010Y0145237D01*
X0008087Y0146035D02*
X0007800Y0146035D01*
X0007800Y0142042D02*
X0008647Y0142042D01*
X0007859Y0141244D02*
X0007800Y0141244D01*
X0007800Y0136698D02*
X0007866Y0136539D01*
X0009039Y0135366D01*
X0010571Y0134731D01*
X0012229Y0134731D01*
X0013761Y0135366D01*
X0014934Y0136539D01*
X0015001Y0136700D01*
X0016937Y0136700D01*
X0020192Y0133446D01*
X0019441Y0133135D01*
X0018765Y0132459D01*
X0018400Y0131577D01*
X0018400Y0130623D01*
X0018765Y0129741D01*
X0019200Y0129306D01*
X0019200Y0119237D01*
X0020137Y0118300D01*
X0020137Y0118300D01*
X0031200Y0107237D01*
X0031200Y0095744D01*
X0030959Y0095985D01*
X0030077Y0096350D01*
X0029123Y0096350D01*
X0028241Y0095985D01*
X0027565Y0095309D01*
X0027200Y0094427D01*
X0027200Y0093854D01*
X0022400Y0089207D01*
X0022400Y0094956D01*
X0022835Y0095391D01*
X0023200Y0096273D01*
X0023200Y0097227D01*
X0022835Y0098109D01*
X0022159Y0098785D01*
X0021277Y0099150D01*
X0020323Y0099150D01*
X0019441Y0098785D01*
X0018765Y0098109D01*
X0018400Y0097227D01*
X0018400Y0096273D01*
X0018765Y0095391D01*
X0019200Y0094956D01*
X0019200Y0079237D01*
X0020137Y0078300D01*
X0036100Y0062337D01*
X0036100Y0051819D01*
X0035665Y0051384D01*
X0035300Y0050502D01*
X0035300Y0050443D01*
X0028000Y0057386D01*
X0028000Y0065063D01*
X0017600Y0075463D01*
X0017600Y0105363D01*
X0015370Y0107592D01*
X0015568Y0108071D01*
X0015568Y0109729D01*
X0014934Y0111261D01*
X0013761Y0112434D01*
X0012229Y0113068D01*
X0010571Y0113068D01*
X0009039Y0112434D01*
X0007866Y0111261D01*
X0007800Y0111102D01*
X0007800Y0116698D01*
X0007866Y0116539D01*
X0009039Y0115366D01*
X0010571Y0114731D01*
X0012229Y0114731D01*
X0012990Y0115047D01*
X0023554Y0104483D01*
X0023200Y0103627D01*
X0023200Y0102673D01*
X0023565Y0101791D01*
X0024241Y0101115D01*
X0025123Y0100750D01*
X0026077Y0100750D01*
X0026959Y0101115D01*
X0027635Y0101791D01*
X0028000Y0102673D01*
X0028000Y0103627D01*
X0027635Y0104509D01*
X0027200Y0104944D01*
X0027200Y0105363D01*
X0015253Y0117310D01*
X0015568Y0118071D01*
X0015568Y0119729D01*
X0014934Y0121261D01*
X0013761Y0122434D01*
X0012229Y0123068D01*
X0010571Y0123068D01*
X0009039Y0122434D01*
X0007866Y0121261D01*
X0007800Y0121102D01*
X0007800Y0126698D01*
X0007866Y0126539D01*
X0009039Y0125366D01*
X0010571Y0124731D01*
X0012229Y0124731D01*
X0013761Y0125366D01*
X0014934Y0126539D01*
X0015568Y0128071D01*
X0015568Y0129729D01*
X0014934Y0131261D01*
X0013761Y0132434D01*
X0012229Y0133068D01*
X0010571Y0133068D01*
X0009039Y0132434D01*
X0007866Y0131261D01*
X0007800Y0131102D01*
X0007800Y0136698D01*
X0007800Y0136453D02*
X0007952Y0136453D01*
X0007800Y0135654D02*
X0008750Y0135654D01*
X0007800Y0134856D02*
X0010271Y0134856D01*
X0009103Y0132460D02*
X0007800Y0132460D01*
X0007800Y0131662D02*
X0008267Y0131662D01*
X0007800Y0133259D02*
X0019740Y0133259D01*
X0019580Y0134057D02*
X0007800Y0134057D01*
X0007800Y0126072D02*
X0008333Y0126072D01*
X0007800Y0125274D02*
X0009262Y0125274D01*
X0007800Y0124475D02*
X0019200Y0124475D01*
X0019200Y0123677D02*
X0007800Y0123677D01*
X0007800Y0122878D02*
X0010111Y0122878D01*
X0008685Y0122080D02*
X0007800Y0122080D01*
X0007800Y0121281D02*
X0007886Y0121281D01*
X0007800Y0116490D02*
X0007915Y0116490D01*
X0007800Y0115692D02*
X0008713Y0115692D01*
X0007800Y0114893D02*
X0010181Y0114893D01*
X0009192Y0112498D02*
X0007800Y0112498D01*
X0007800Y0113296D02*
X0014741Y0113296D01*
X0013943Y0114095D02*
X0007800Y0114095D01*
X0007800Y0111699D02*
X0008304Y0111699D01*
X0011400Y0108900D02*
X0012000Y0108700D01*
X0016000Y0104700D01*
X0016000Y0074800D01*
X0026400Y0064400D01*
X0026400Y0056700D01*
X0039200Y0044525D01*
X0045150Y0044525D01*
X0046400Y0043275D01*
X0044000Y0047525D02*
X0044000Y0066475D01*
X0038400Y0072075D01*
X0041345Y0074968D02*
X0043153Y0074968D01*
X0043153Y0075766D02*
X0040547Y0075766D01*
X0039748Y0076565D02*
X0043153Y0076565D01*
X0043153Y0077363D02*
X0039647Y0077363D01*
X0039647Y0078162D02*
X0043153Y0078162D01*
X0043153Y0078960D02*
X0039647Y0078960D01*
X0039647Y0079759D02*
X0043153Y0079759D01*
X0043153Y0080557D02*
X0039647Y0080557D01*
X0039647Y0081356D02*
X0043153Y0081356D01*
X0043153Y0082154D02*
X0039647Y0082154D01*
X0039635Y0082953D02*
X0043165Y0082953D01*
X0043625Y0084550D02*
X0039175Y0084550D01*
X0039175Y0085348D02*
X0043625Y0085348D01*
X0043625Y0086147D02*
X0039175Y0086147D01*
X0039175Y0086945D02*
X0043625Y0086945D01*
X0043625Y0087744D02*
X0039175Y0087744D01*
X0039175Y0088542D02*
X0043625Y0088542D01*
X0043894Y0089341D02*
X0038906Y0089341D01*
X0039137Y0090938D02*
X0043663Y0090938D01*
X0043425Y0091736D02*
X0039375Y0091736D01*
X0039375Y0092535D02*
X0043425Y0092535D01*
X0043425Y0094132D02*
X0039375Y0094132D01*
X0039375Y0093884D02*
X0039375Y0095452D01*
X0039279Y0095808D01*
X0039095Y0096128D01*
X0038834Y0096388D01*
X0038515Y0096573D01*
X0038159Y0096668D01*
X0036787Y0096668D01*
X0036787Y0093884D01*
X0039375Y0093884D01*
X0039375Y0094930D02*
X0043425Y0094930D01*
X0043499Y0095729D02*
X0039301Y0095729D01*
X0038594Y0096527D02*
X0044206Y0096527D01*
X0041357Y0108505D02*
X0040557Y0108505D01*
X0040557Y0109303D02*
X0041357Y0109303D01*
X0041357Y0110102D02*
X0040557Y0110102D01*
X0040557Y0110901D02*
X0041357Y0110901D01*
X0040941Y0111699D02*
X0040557Y0111699D01*
X0040941Y0112498D02*
X0040166Y0112498D01*
X0040166Y0113296D02*
X0040941Y0113296D01*
X0040941Y0114893D02*
X0040166Y0114893D01*
X0040166Y0115692D02*
X0040941Y0115692D01*
X0040941Y0116490D02*
X0040166Y0116490D01*
X0037817Y0116490D02*
X0026473Y0116490D01*
X0027271Y0115692D02*
X0037391Y0115692D01*
X0036801Y0106908D02*
X0034400Y0106908D01*
X0034400Y0106109D02*
X0036801Y0106109D01*
X0036801Y0105311D02*
X0034400Y0105311D01*
X0034400Y0104512D02*
X0036854Y0104512D01*
X0037445Y0103714D02*
X0034400Y0103714D01*
X0032800Y0107900D02*
X0020800Y0119900D01*
X0020800Y0131100D01*
X0022969Y0130065D02*
X0023572Y0130065D01*
X0024371Y0129266D02*
X0022400Y0129266D01*
X0022400Y0128468D02*
X0024800Y0128468D01*
X0024375Y0127669D02*
X0022400Y0127669D01*
X0022400Y0126871D02*
X0024039Y0126871D01*
X0024000Y0126072D02*
X0022400Y0126072D01*
X0022400Y0125274D02*
X0024227Y0125274D01*
X0024831Y0124475D02*
X0022400Y0124475D01*
X0022400Y0123677D02*
X0075000Y0123677D01*
X0070111Y0122878D02*
X0022400Y0122878D01*
X0022400Y0122080D02*
X0044291Y0122080D01*
X0043852Y0121281D02*
X0022400Y0121281D01*
X0022480Y0120483D02*
X0043852Y0120483D01*
X0043852Y0119684D02*
X0023279Y0119684D01*
X0024077Y0118886D02*
X0043852Y0118886D01*
X0043852Y0118087D02*
X0024876Y0118087D01*
X0025674Y0117289D02*
X0043852Y0117289D01*
X0043852Y0116490D02*
X0043290Y0116490D01*
X0043716Y0115692D02*
X0044000Y0115692D01*
X0044000Y0114893D02*
X0043725Y0114893D01*
X0049871Y0125274D02*
X0050429Y0125274D01*
X0050429Y0126072D02*
X0049871Y0126072D01*
X0049871Y0126871D02*
X0050429Y0126871D01*
X0050429Y0127669D02*
X0049871Y0127669D01*
X0049871Y0128468D02*
X0050429Y0128468D01*
X0050429Y0129298D02*
X0049871Y0129298D01*
X0049871Y0132727D01*
X0050387Y0133243D01*
X0050387Y0133147D01*
X0050753Y0132781D01*
X0050429Y0132781D01*
X0050429Y0129298D01*
X0050429Y0130065D02*
X0049871Y0130065D01*
X0049871Y0130863D02*
X0050429Y0130863D01*
X0050429Y0131662D02*
X0049871Y0131662D01*
X0049871Y0132460D02*
X0050429Y0132460D01*
X0051758Y0125274D02*
X0068959Y0125274D01*
X0074941Y0141244D02*
X0075000Y0141244D01*
X0075000Y0142042D02*
X0074153Y0142042D01*
X0075000Y0142841D02*
X0072778Y0142841D01*
X0059053Y0121281D02*
X0056448Y0121281D01*
X0056448Y0120483D02*
X0058694Y0120483D01*
X0058694Y0119684D02*
X0056448Y0119684D01*
X0056448Y0118886D02*
X0058694Y0118886D01*
X0058220Y0118087D02*
X0056448Y0118087D01*
X0056448Y0117289D02*
X0057289Y0117289D01*
X0060000Y0111450D02*
X0067200Y0104250D01*
X0067200Y0052700D01*
X0065600Y0053500D02*
X0065600Y0086925D01*
X0058400Y0094125D01*
X0058400Y0097950D01*
X0060775Y0100775D02*
X0060775Y0106275D01*
X0060975Y0106475D01*
X0060775Y0100775D02*
X0061600Y0099950D01*
X0061600Y0094925D01*
X0048434Y0073370D02*
X0042942Y0073370D01*
X0043741Y0072572D02*
X0048800Y0072572D01*
X0048800Y0071773D02*
X0044539Y0071773D01*
X0045338Y0070975D02*
X0048800Y0070975D01*
X0048800Y0070176D02*
X0046136Y0070176D01*
X0046935Y0069378D02*
X0048800Y0069378D01*
X0048800Y0068579D02*
X0047733Y0068579D01*
X0048000Y0067781D02*
X0048343Y0067781D01*
X0048012Y0066982D02*
X0048000Y0066982D01*
X0048000Y0066438D02*
X0048000Y0066438D01*
X0046400Y0065775D02*
X0046400Y0067650D01*
X0037650Y0076400D01*
X0037650Y0077729D01*
X0036479Y0078900D01*
X0036800Y0078300D01*
X0036479Y0078900D02*
X0036400Y0078900D01*
X0036400Y0086804D01*
X0038000Y0083751D02*
X0044721Y0083751D01*
X0043843Y0074169D02*
X0042144Y0074169D01*
X0046400Y0065775D02*
X0048625Y0063550D01*
X0048625Y0063450D01*
X0046549Y0062191D02*
X0045600Y0062191D01*
X0045600Y0061393D02*
X0047320Y0061393D01*
X0046225Y0062990D02*
X0045600Y0062990D01*
X0045600Y0063788D02*
X0046124Y0063788D01*
X0041600Y0064250D02*
X0032800Y0073050D01*
X0032800Y0107900D01*
X0031200Y0106908D02*
X0025655Y0106908D01*
X0026453Y0106109D02*
X0031200Y0106109D01*
X0031200Y0105311D02*
X0027200Y0105311D01*
X0027632Y0104512D02*
X0031200Y0104512D01*
X0031200Y0103714D02*
X0027964Y0103714D01*
X0028000Y0102915D02*
X0031200Y0102915D01*
X0031200Y0102117D02*
X0027770Y0102117D01*
X0027162Y0101318D02*
X0031200Y0101318D01*
X0031200Y0100520D02*
X0017600Y0100520D01*
X0017600Y0101318D02*
X0024037Y0101318D01*
X0023430Y0102117D02*
X0017600Y0102117D01*
X0017600Y0102915D02*
X0023200Y0102915D01*
X0023236Y0103714D02*
X0017600Y0103714D01*
X0017600Y0104512D02*
X0023525Y0104512D01*
X0022726Y0105311D02*
X0017600Y0105311D01*
X0016853Y0106109D02*
X0021928Y0106109D01*
X0021129Y0106908D02*
X0016055Y0106908D01*
X0015418Y0107706D02*
X0020331Y0107706D01*
X0019532Y0108505D02*
X0015568Y0108505D01*
X0015568Y0109303D02*
X0018734Y0109303D01*
X0017935Y0110102D02*
X0015414Y0110102D01*
X0015083Y0110901D02*
X0017137Y0110901D01*
X0016338Y0111699D02*
X0014496Y0111699D01*
X0013608Y0112498D02*
X0015540Y0112498D01*
X0016871Y0115692D02*
X0022746Y0115692D01*
X0021947Y0116490D02*
X0016073Y0116490D01*
X0015274Y0117289D02*
X0021149Y0117289D01*
X0020350Y0118087D02*
X0015568Y0118087D01*
X0015568Y0118886D02*
X0019552Y0118886D01*
X0019200Y0119684D02*
X0015568Y0119684D01*
X0015256Y0120483D02*
X0019200Y0120483D01*
X0019200Y0121281D02*
X0014914Y0121281D01*
X0014115Y0122080D02*
X0019200Y0122080D01*
X0019200Y0122878D02*
X0012689Y0122878D01*
X0013538Y0125274D02*
X0019200Y0125274D01*
X0019200Y0126072D02*
X0014467Y0126072D01*
X0015071Y0126871D02*
X0019200Y0126871D01*
X0019200Y0127669D02*
X0015402Y0127669D01*
X0015568Y0128468D02*
X0019200Y0128468D01*
X0019200Y0129266D02*
X0015568Y0129266D01*
X0015429Y0130065D02*
X0018631Y0130065D01*
X0018400Y0130863D02*
X0015099Y0130863D01*
X0014533Y0131662D02*
X0018435Y0131662D01*
X0018766Y0132460D02*
X0013697Y0132460D01*
X0012529Y0134856D02*
X0018781Y0134856D01*
X0017983Y0135654D02*
X0014050Y0135654D01*
X0014848Y0136453D02*
X0017184Y0136453D01*
X0020113Y0138050D02*
X0036801Y0138050D01*
X0037635Y0140445D02*
X0034852Y0140445D01*
X0040557Y0140445D02*
X0041357Y0140445D01*
X0041357Y0139647D02*
X0040557Y0139647D01*
X0040557Y0138848D02*
X0041357Y0138848D01*
X0041357Y0138050D02*
X0040557Y0138050D01*
X0040557Y0137251D02*
X0041357Y0137251D01*
X0041357Y0135654D02*
X0040557Y0135654D01*
X0040557Y0134856D02*
X0041357Y0134856D01*
X0041357Y0134057D02*
X0040557Y0134057D01*
X0040557Y0133259D02*
X0041357Y0133259D01*
X0041357Y0132460D02*
X0040557Y0132460D01*
X0045113Y0134856D02*
X0045212Y0134856D01*
X0045113Y0135654D02*
X0046010Y0135654D01*
X0030731Y0107706D02*
X0024856Y0107706D01*
X0024058Y0108505D02*
X0029932Y0108505D01*
X0029134Y0109303D02*
X0023259Y0109303D01*
X0022461Y0110102D02*
X0028335Y0110102D01*
X0027537Y0110901D02*
X0021662Y0110901D01*
X0020864Y0111699D02*
X0026738Y0111699D01*
X0025940Y0112498D02*
X0020065Y0112498D01*
X0019267Y0113296D02*
X0025141Y0113296D01*
X0024343Y0114095D02*
X0018468Y0114095D01*
X0017670Y0114893D02*
X0023544Y0114893D01*
X0025600Y0104700D02*
X0011400Y0118900D01*
X0012619Y0114893D02*
X0013144Y0114893D01*
X0017600Y0099721D02*
X0031200Y0099721D01*
X0031200Y0098923D02*
X0021826Y0098923D01*
X0022820Y0098124D02*
X0031200Y0098124D01*
X0031200Y0097326D02*
X0023159Y0097326D01*
X0023200Y0096527D02*
X0031200Y0096527D01*
X0029600Y0093950D02*
X0023350Y0087900D01*
X0023200Y0081500D01*
X0025600Y0079100D02*
X0030400Y0074300D01*
X0027462Y0070975D02*
X0022088Y0070975D01*
X0022886Y0070176D02*
X0028261Y0070176D01*
X0029059Y0069378D02*
X0023685Y0069378D01*
X0024483Y0068579D02*
X0029858Y0068579D01*
X0030656Y0067781D02*
X0025282Y0067781D01*
X0026080Y0066982D02*
X0031455Y0066982D01*
X0032253Y0066184D02*
X0026879Y0066184D01*
X0027677Y0065385D02*
X0033052Y0065385D01*
X0033850Y0064587D02*
X0028000Y0064587D01*
X0028000Y0063788D02*
X0034649Y0063788D01*
X0035447Y0062990D02*
X0028000Y0062990D01*
X0028000Y0062191D02*
X0036100Y0062191D01*
X0036100Y0061393D02*
X0028000Y0061393D01*
X0028000Y0060594D02*
X0036100Y0060594D01*
X0036100Y0059796D02*
X0028000Y0059796D01*
X0028000Y0058997D02*
X0036100Y0058997D01*
X0036100Y0058199D02*
X0028000Y0058199D01*
X0028000Y0057400D02*
X0036100Y0057400D01*
X0036100Y0056602D02*
X0028825Y0056602D01*
X0029664Y0055803D02*
X0036100Y0055803D01*
X0036100Y0055005D02*
X0030504Y0055005D01*
X0031343Y0054206D02*
X0036100Y0054206D01*
X0036100Y0053408D02*
X0032183Y0053408D01*
X0033022Y0052609D02*
X0036100Y0052609D01*
X0036092Y0051811D02*
X0033862Y0051811D01*
X0034701Y0051012D02*
X0035511Y0051012D01*
X0033416Y0047818D02*
X0015464Y0047818D01*
X0015568Y0048617D02*
X0032577Y0048617D01*
X0031737Y0049415D02*
X0015568Y0049415D01*
X0015368Y0050214D02*
X0030898Y0050214D01*
X0030058Y0051012D02*
X0015037Y0051012D01*
X0014384Y0051811D02*
X0029219Y0051811D01*
X0028379Y0052609D02*
X0014972Y0052609D01*
X0015770Y0053408D02*
X0027540Y0053408D01*
X0026700Y0054206D02*
X0016569Y0054206D01*
X0017367Y0055005D02*
X0025861Y0055005D01*
X0025021Y0055803D02*
X0018166Y0055803D01*
X0018964Y0056602D02*
X0024800Y0056602D01*
X0024800Y0057400D02*
X0019763Y0057400D01*
X0020562Y0058199D02*
X0024800Y0058199D01*
X0024800Y0058997D02*
X0021360Y0058997D01*
X0022159Y0059796D02*
X0024800Y0059796D01*
X0024800Y0060594D02*
X0022957Y0060594D01*
X0023200Y0063100D02*
X0012000Y0051900D01*
X0012000Y0049500D01*
X0011400Y0048900D01*
X0013818Y0045423D02*
X0035935Y0045423D01*
X0035095Y0046221D02*
X0014616Y0046221D01*
X0015133Y0047020D02*
X0034256Y0047020D01*
X0036774Y0044624D02*
X0007800Y0044624D01*
X0007800Y0043826D02*
X0037614Y0043826D01*
X0038435Y0043027D02*
X0012329Y0043027D01*
X0013967Y0042229D02*
X0028241Y0042229D01*
X0027442Y0041430D02*
X0014765Y0041430D01*
X0015195Y0040632D02*
X0026644Y0040632D01*
X0025845Y0039833D02*
X0015525Y0039833D01*
X0015568Y0039034D02*
X0025047Y0039034D01*
X0024248Y0038236D02*
X0015568Y0038236D01*
X0015306Y0037437D02*
X0023450Y0037437D01*
X0022651Y0036639D02*
X0014975Y0036639D01*
X0014236Y0035840D02*
X0021853Y0035840D01*
X0021054Y0035042D02*
X0012979Y0035042D01*
X0013248Y0032646D02*
X0018659Y0032646D01*
X0017860Y0031848D02*
X0014347Y0031848D01*
X0015022Y0031049D02*
X0017062Y0031049D01*
X0016800Y0030251D02*
X0015352Y0030251D01*
X0015568Y0029452D02*
X0016800Y0029452D01*
X0016800Y0028654D02*
X0015568Y0028654D01*
X0015479Y0027855D02*
X0016800Y0027855D01*
X0016800Y0027057D02*
X0015148Y0027057D01*
X0014653Y0026258D02*
X0016800Y0026258D01*
X0016800Y0025460D02*
X0013855Y0025460D01*
X0016273Y0024661D02*
X0007800Y0024661D01*
X0007800Y0023863D02*
X0016000Y0023863D01*
X0016000Y0023064D02*
X0007800Y0023064D01*
X0007800Y0022266D02*
X0016324Y0022266D01*
X0017096Y0021467D02*
X0007800Y0021467D01*
X0007800Y0020669D02*
X0017156Y0020669D01*
X0016800Y0019870D02*
X0007800Y0019870D01*
X0007800Y0019072D02*
X0016800Y0019072D01*
X0016268Y0018273D02*
X0007800Y0018273D01*
X0007800Y0017475D02*
X0016000Y0017475D01*
X0016000Y0016676D02*
X0007800Y0016676D01*
X0007800Y0015878D02*
X0016329Y0015878D01*
X0017128Y0015079D02*
X0007800Y0015079D01*
X0007800Y0014281D02*
X0025715Y0014281D01*
X0025715Y0015079D02*
X0019672Y0015079D01*
X0020471Y0015878D02*
X0025715Y0015878D01*
X0025715Y0016676D02*
X0020800Y0016676D01*
X0020800Y0017475D02*
X0025715Y0017475D01*
X0025715Y0018273D02*
X0020532Y0018273D01*
X0020084Y0019072D02*
X0025715Y0019072D01*
X0025715Y0019870D02*
X0020883Y0019870D01*
X0021681Y0020669D02*
X0025715Y0020669D01*
X0025715Y0021467D02*
X0022480Y0021467D01*
X0022825Y0022266D02*
X0025715Y0022266D01*
X0025715Y0023064D02*
X0022825Y0023064D01*
X0022825Y0023863D02*
X0075000Y0023863D01*
X0075000Y0024661D02*
X0022825Y0024661D01*
X0021225Y0022475D02*
X0018400Y0019650D01*
X0018400Y0017150D01*
X0021225Y0022475D02*
X0021225Y0029975D01*
X0025775Y0034525D01*
X0028360Y0029452D02*
X0022965Y0029452D01*
X0022825Y0028654D02*
X0029158Y0028654D01*
X0018400Y0030125D02*
X0029150Y0040875D01*
X0037600Y0035100D02*
X0047200Y0035100D01*
X0065600Y0053500D01*
X0071400Y0038900D02*
X0071200Y0038300D01*
X0068800Y0035900D01*
X0056800Y0035900D01*
X0041600Y0050125D02*
X0041600Y0064250D01*
X0037700Y0063000D02*
X0020800Y0079900D01*
X0020800Y0096750D01*
X0022975Y0095729D02*
X0027985Y0095729D01*
X0027408Y0094930D02*
X0022400Y0094930D01*
X0022400Y0094132D02*
X0027200Y0094132D01*
X0026662Y0093333D02*
X0022400Y0093333D01*
X0022400Y0092535D02*
X0025838Y0092535D01*
X0025013Y0091736D02*
X0022400Y0091736D01*
X0022400Y0090938D02*
X0024188Y0090938D01*
X0023363Y0090139D02*
X0022400Y0090139D01*
X0022400Y0089341D02*
X0022538Y0089341D01*
X0019200Y0089341D02*
X0017600Y0089341D01*
X0017600Y0090139D02*
X0019200Y0090139D01*
X0019200Y0090938D02*
X0017600Y0090938D01*
X0017600Y0091736D02*
X0019200Y0091736D01*
X0019200Y0092535D02*
X0017600Y0092535D01*
X0017600Y0093333D02*
X0019200Y0093333D01*
X0019200Y0094132D02*
X0017600Y0094132D01*
X0017600Y0094930D02*
X0019200Y0094930D01*
X0018625Y0095729D02*
X0017600Y0095729D01*
X0017600Y0096527D02*
X0018400Y0096527D01*
X0018441Y0097326D02*
X0017600Y0097326D01*
X0017600Y0098124D02*
X0018780Y0098124D01*
X0019774Y0098923D02*
X0017600Y0098923D01*
X0017600Y0088542D02*
X0019200Y0088542D01*
X0019200Y0087744D02*
X0017600Y0087744D01*
X0017600Y0086945D02*
X0019200Y0086945D01*
X0019200Y0086147D02*
X0017600Y0086147D01*
X0017600Y0085348D02*
X0019200Y0085348D01*
X0019200Y0084550D02*
X0017600Y0084550D01*
X0017600Y0083751D02*
X0019200Y0083751D01*
X0019200Y0082953D02*
X0017600Y0082953D01*
X0017600Y0082154D02*
X0019200Y0082154D01*
X0019200Y0081356D02*
X0017600Y0081356D01*
X0017600Y0080557D02*
X0019200Y0080557D01*
X0019200Y0079759D02*
X0017600Y0079759D01*
X0017600Y0078960D02*
X0019477Y0078960D01*
X0020276Y0078162D02*
X0017600Y0078162D01*
X0017600Y0077363D02*
X0021074Y0077363D01*
X0021873Y0076565D02*
X0017600Y0076565D01*
X0017600Y0075766D02*
X0022671Y0075766D01*
X0023470Y0074968D02*
X0018095Y0074968D01*
X0018894Y0074169D02*
X0024268Y0074169D01*
X0025067Y0073370D02*
X0019692Y0073370D01*
X0020491Y0072572D02*
X0025865Y0072572D01*
X0026664Y0071773D02*
X0021289Y0071773D01*
X0008184Y0046221D02*
X0007800Y0046221D01*
X0007800Y0045423D02*
X0008982Y0045423D01*
X0007800Y0043027D02*
X0010471Y0043027D01*
X0008833Y0042229D02*
X0007800Y0042229D01*
X0007800Y0041430D02*
X0008035Y0041430D01*
X0007825Y0036639D02*
X0007800Y0036639D01*
X0007800Y0035840D02*
X0008564Y0035840D01*
X0007800Y0035042D02*
X0009821Y0035042D01*
X0007800Y0034243D02*
X0020256Y0034243D01*
X0019457Y0033445D02*
X0007800Y0033445D01*
X0007800Y0032646D02*
X0009552Y0032646D01*
X0008453Y0031848D02*
X0007800Y0031848D01*
X0007800Y0026258D02*
X0008147Y0026258D01*
X0007800Y0025460D02*
X0008945Y0025460D01*
X0007800Y0013482D02*
X0025715Y0013482D01*
X0025715Y0012684D02*
X0007800Y0012684D01*
X0007800Y0011885D02*
X0025715Y0011885D01*
X0025715Y0011087D02*
X0007800Y0011087D01*
X0007800Y0010288D02*
X0025715Y0010288D01*
X0025715Y0009490D02*
X0007800Y0009490D01*
X0007821Y0008691D02*
X0025715Y0008691D01*
X0025715Y0007893D02*
X0007996Y0007893D01*
X0008326Y0007094D02*
X0025715Y0007094D01*
X0025715Y0006296D02*
X0009011Y0006296D01*
X0010389Y0005497D02*
X0025715Y0005497D01*
X0018400Y0023525D02*
X0018400Y0030125D01*
X0037700Y0050025D02*
X0037700Y0063000D01*
X0036800Y0093500D02*
X0036400Y0093496D01*
X0036013Y0094132D02*
X0036787Y0094132D01*
X0036787Y0094930D02*
X0036013Y0094930D01*
X0036013Y0095729D02*
X0036787Y0095729D01*
X0036787Y0096527D02*
X0036013Y0096527D01*
X0025600Y0103150D02*
X0025600Y0104700D01*
X0017355Y0150028D02*
X0015627Y0150028D01*
X0015321Y0150826D02*
X0017686Y0150826D01*
X0018229Y0151625D02*
X0014820Y0151625D01*
X0013983Y0152423D02*
X0019028Y0152423D01*
X0074653Y0026258D02*
X0075000Y0026258D01*
X0075000Y0025460D02*
X0073855Y0025460D01*
D20*
X0056800Y0024700D03*
X0056800Y0035900D03*
X0054300Y0046200D03*
X0054750Y0050650D03*
X0048900Y0047650D03*
X0046400Y0043275D03*
X0048975Y0040875D03*
X0044000Y0047525D03*
X0041600Y0050125D03*
X0037700Y0050025D03*
X0033625Y0053600D03*
X0033625Y0044850D03*
X0032800Y0034925D03*
X0037600Y0035100D03*
X0040150Y0025150D03*
X0028000Y0032075D03*
X0018275Y0034525D03*
X0018400Y0023525D03*
X0018400Y0017150D03*
X0024000Y0009500D03*
X0011400Y0013900D03*
X0028000Y0051100D03*
X0024000Y0059900D03*
X0023200Y0063100D03*
X0030400Y0074300D03*
X0025600Y0079100D03*
X0023200Y0081500D03*
X0029600Y0093950D03*
X0025600Y0103150D03*
X0027650Y0108900D03*
X0027650Y0118900D03*
X0026400Y0126300D03*
X0020800Y0131100D03*
X0017650Y0133275D03*
X0025600Y0140600D03*
X0032650Y0141400D03*
X0050150Y0141400D03*
X0062650Y0125150D03*
X0060000Y0111450D03*
X0060975Y0106475D03*
X0058400Y0097950D03*
X0061600Y0094925D03*
X0054400Y0100700D03*
X0052775Y0095100D03*
X0052875Y0080175D03*
X0050400Y0066475D03*
X0048625Y0063450D03*
X0055200Y0062675D03*
X0061600Y0061850D03*
X0041600Y0089750D03*
X0038400Y0072075D03*
X0020800Y0096750D03*
D21*
X0049350Y0103200D03*
X0055825Y0066475D03*
D22*
X0045775Y0136400D02*
X0040957Y0136400D01*
X0045775Y0136400D02*
X0045957Y0136582D01*
X0050332Y0141400D01*
X0050150Y0141400D01*
M02*
