G75*
%MOIN*%
%OFA0B0*%
%FSLAX25Y25*%
%IPPOS*%
%LPD*%
%AMOC8*
5,1,8,0,0,1.08239X$1,22.5*
%
%ADD10C,0.00000*%
%ADD11R,0.05512X0.05512*%
%ADD12R,0.03543X0.03150*%
%ADD13R,0.03150X0.03543*%
%ADD14R,0.03937X0.07087*%
%ADD15R,0.02717X0.04724*%
D10*
X0006400Y0008900D02*
X0006400Y0148900D01*
X0006402Y0149040D01*
X0006408Y0149180D01*
X0006418Y0149320D01*
X0006431Y0149460D01*
X0006449Y0149599D01*
X0006471Y0149738D01*
X0006496Y0149875D01*
X0006525Y0150013D01*
X0006558Y0150149D01*
X0006595Y0150284D01*
X0006636Y0150418D01*
X0006681Y0150551D01*
X0006729Y0150683D01*
X0006781Y0150813D01*
X0006836Y0150942D01*
X0006895Y0151069D01*
X0006958Y0151195D01*
X0007024Y0151319D01*
X0007093Y0151440D01*
X0007166Y0151560D01*
X0007243Y0151678D01*
X0007322Y0151793D01*
X0007405Y0151907D01*
X0007491Y0152017D01*
X0007580Y0152126D01*
X0007672Y0152232D01*
X0007767Y0152335D01*
X0007864Y0152436D01*
X0007965Y0152533D01*
X0008068Y0152628D01*
X0008174Y0152720D01*
X0008283Y0152809D01*
X0008393Y0152895D01*
X0008507Y0152978D01*
X0008622Y0153057D01*
X0008740Y0153134D01*
X0008860Y0153207D01*
X0008981Y0153276D01*
X0009105Y0153342D01*
X0009231Y0153405D01*
X0009358Y0153464D01*
X0009487Y0153519D01*
X0009617Y0153571D01*
X0009749Y0153619D01*
X0009882Y0153664D01*
X0010016Y0153705D01*
X0010151Y0153742D01*
X0010287Y0153775D01*
X0010425Y0153804D01*
X0010562Y0153829D01*
X0010701Y0153851D01*
X0010840Y0153869D01*
X0010980Y0153882D01*
X0011120Y0153892D01*
X0011260Y0153898D01*
X0011400Y0153900D01*
X0071400Y0153900D01*
X0071540Y0153898D01*
X0071680Y0153892D01*
X0071820Y0153882D01*
X0071960Y0153869D01*
X0072099Y0153851D01*
X0072238Y0153829D01*
X0072375Y0153804D01*
X0072513Y0153775D01*
X0072649Y0153742D01*
X0072784Y0153705D01*
X0072918Y0153664D01*
X0073051Y0153619D01*
X0073183Y0153571D01*
X0073313Y0153519D01*
X0073442Y0153464D01*
X0073569Y0153405D01*
X0073695Y0153342D01*
X0073819Y0153276D01*
X0073940Y0153207D01*
X0074060Y0153134D01*
X0074178Y0153057D01*
X0074293Y0152978D01*
X0074407Y0152895D01*
X0074517Y0152809D01*
X0074626Y0152720D01*
X0074732Y0152628D01*
X0074835Y0152533D01*
X0074936Y0152436D01*
X0075033Y0152335D01*
X0075128Y0152232D01*
X0075220Y0152126D01*
X0075309Y0152017D01*
X0075395Y0151907D01*
X0075478Y0151793D01*
X0075557Y0151678D01*
X0075634Y0151560D01*
X0075707Y0151440D01*
X0075776Y0151319D01*
X0075842Y0151195D01*
X0075905Y0151069D01*
X0075964Y0150942D01*
X0076019Y0150813D01*
X0076071Y0150683D01*
X0076119Y0150551D01*
X0076164Y0150418D01*
X0076205Y0150284D01*
X0076242Y0150149D01*
X0076275Y0150013D01*
X0076304Y0149875D01*
X0076329Y0149738D01*
X0076351Y0149599D01*
X0076369Y0149460D01*
X0076382Y0149320D01*
X0076392Y0149180D01*
X0076398Y0149040D01*
X0076400Y0148900D01*
X0076400Y0008900D01*
X0076398Y0008760D01*
X0076392Y0008620D01*
X0076382Y0008480D01*
X0076369Y0008340D01*
X0076351Y0008201D01*
X0076329Y0008062D01*
X0076304Y0007925D01*
X0076275Y0007787D01*
X0076242Y0007651D01*
X0076205Y0007516D01*
X0076164Y0007382D01*
X0076119Y0007249D01*
X0076071Y0007117D01*
X0076019Y0006987D01*
X0075964Y0006858D01*
X0075905Y0006731D01*
X0075842Y0006605D01*
X0075776Y0006481D01*
X0075707Y0006360D01*
X0075634Y0006240D01*
X0075557Y0006122D01*
X0075478Y0006007D01*
X0075395Y0005893D01*
X0075309Y0005783D01*
X0075220Y0005674D01*
X0075128Y0005568D01*
X0075033Y0005465D01*
X0074936Y0005364D01*
X0074835Y0005267D01*
X0074732Y0005172D01*
X0074626Y0005080D01*
X0074517Y0004991D01*
X0074407Y0004905D01*
X0074293Y0004822D01*
X0074178Y0004743D01*
X0074060Y0004666D01*
X0073940Y0004593D01*
X0073819Y0004524D01*
X0073695Y0004458D01*
X0073569Y0004395D01*
X0073442Y0004336D01*
X0073313Y0004281D01*
X0073183Y0004229D01*
X0073051Y0004181D01*
X0072918Y0004136D01*
X0072784Y0004095D01*
X0072649Y0004058D01*
X0072513Y0004025D01*
X0072375Y0003996D01*
X0072238Y0003971D01*
X0072099Y0003949D01*
X0071960Y0003931D01*
X0071820Y0003918D01*
X0071680Y0003908D01*
X0071540Y0003902D01*
X0071400Y0003900D01*
X0011400Y0003900D01*
X0011260Y0003902D01*
X0011120Y0003908D01*
X0010980Y0003918D01*
X0010840Y0003931D01*
X0010701Y0003949D01*
X0010562Y0003971D01*
X0010425Y0003996D01*
X0010287Y0004025D01*
X0010151Y0004058D01*
X0010016Y0004095D01*
X0009882Y0004136D01*
X0009749Y0004181D01*
X0009617Y0004229D01*
X0009487Y0004281D01*
X0009358Y0004336D01*
X0009231Y0004395D01*
X0009105Y0004458D01*
X0008981Y0004524D01*
X0008860Y0004593D01*
X0008740Y0004666D01*
X0008622Y0004743D01*
X0008507Y0004822D01*
X0008393Y0004905D01*
X0008283Y0004991D01*
X0008174Y0005080D01*
X0008068Y0005172D01*
X0007965Y0005267D01*
X0007864Y0005364D01*
X0007767Y0005465D01*
X0007672Y0005568D01*
X0007580Y0005674D01*
X0007491Y0005783D01*
X0007405Y0005893D01*
X0007322Y0006007D01*
X0007243Y0006122D01*
X0007166Y0006240D01*
X0007093Y0006360D01*
X0007024Y0006481D01*
X0006958Y0006605D01*
X0006895Y0006731D01*
X0006836Y0006858D01*
X0006781Y0006987D01*
X0006729Y0007117D01*
X0006681Y0007249D01*
X0006636Y0007382D01*
X0006595Y0007516D01*
X0006558Y0007651D01*
X0006525Y0007787D01*
X0006496Y0007925D01*
X0006471Y0008062D01*
X0006449Y0008201D01*
X0006431Y0008340D01*
X0006418Y0008480D01*
X0006408Y0008620D01*
X0006402Y0008760D01*
X0006400Y0008900D01*
D11*
X0040957Y0107650D03*
X0054343Y0107650D03*
X0062650Y0117670D03*
X0062650Y0132630D03*
X0054343Y0136400D03*
X0040957Y0136400D03*
D12*
X0040554Y0113900D03*
X0047246Y0113900D03*
D13*
X0046400Y0093496D03*
X0046400Y0086804D03*
X0036400Y0086804D03*
X0036400Y0093496D03*
D14*
X0036479Y0078900D03*
X0046321Y0078900D03*
D15*
X0046410Y0118781D03*
X0046410Y0129019D03*
X0050150Y0129019D03*
X0053890Y0129019D03*
X0053890Y0118781D03*
M02*
