%
M48
M72
T01C0.01200
T02C0.02362
T03C0.03937
%
T01
X11400Y13900
X18400Y17150
X18400Y23525
X18275Y34525
X28000Y32075
X32800Y34925
X37600Y35100
X33625Y44850
X37700Y50025
X41600Y50125
X44000Y47525
X46400Y43275
X48975Y40875
X48900Y47650
X54300Y46200
X54750Y50650
X55200Y62675
X50400Y66475
X48625Y63450
X52875Y80175
X52775Y95100
X54400Y100700
X58400Y97950
X61600Y94925
X60975Y106475
X60000Y111450
X62650Y125150
X50150Y141400
X32650Y141400
X25600Y140600
X20800Y131100
X17650Y133275
X26400Y126300
X27650Y118900
X27650Y108900
X25600Y103150
X20800Y96750
X29600Y93950
X23200Y81500
X25600Y79100
X30400Y74300
X23200Y63100
X24000Y59900
X28000Y51100
X33625Y53600
X38400Y72075
X41600Y89750
X61600Y61850
X56800Y35900
X56800Y24700
X40150Y25150
X24000Y9500
T02
X55825Y66475
X49350Y103200
T03
X71400Y98900
X71400Y88900
X71400Y78900
X71400Y68900
X71400Y58900
X71400Y48900
X71400Y38900
X71400Y28900
X71400Y108900
X71400Y118900
X71400Y128900
X71400Y138900
X71400Y148900
X61400Y148900
X51400Y148900
X41400Y148900
X31400Y148900
X21400Y148900
X11400Y148900
X11400Y138900
X11400Y128900
X11400Y118900
X11400Y108900
X11400Y98900
X11400Y88900
X11400Y78900
X11400Y68900
X11400Y58900
X11400Y48900
X11400Y38900
X11400Y28900
M30
